<svg width="13" height="12" viewBox="0 0 13 12" fill="none" xmlns="http://www.w3.org/2000/svg">
<path d="M12.1309 11.6309C11.8848 11.877 11.5879 12 11.2402 12C10.8926 12 10.5977 11.8789 10.3555 11.6367L7.625 8.90625C7.32812 8.60938 7.21094 8.25391 7.27344 7.83984L5.05859 5.625C4.46484 6.10156 3.82031 6.47656 3.125 6.75C1.97656 6.15625 1.10156 5.28125 0.5 4.125C0.875 3.1875 1.42383 2.35938 2.14648 1.64062C2.86914 0.921875 3.69922 0.375 4.63672 0C5.78516 0.601562 6.66016 1.47656 7.26172 2.625C6.98047 3.32812 6.60156 3.97266 6.125 4.55859L8.33984 6.77344C8.75391 6.71094 9.10938 6.82812 9.40625 7.125L12.1367 9.85547C12.3789 10.0977 12.5 10.3926 12.5 10.7402C12.5 11.0879 12.377 11.3848 12.1309 11.6309Z" fill="#8D99FF"/>
</svg>
