<svg width="15" height="12" viewBox="0 0 15 12" fill="none" xmlns="http://www.w3.org/2000/svg">
<g clip-path="url(#clip0)">
<path d="M14.4379 0H9.93789C9.62889 0 9.19614 0.17925 8.97789 0.3975L3.39864 5.97675C3.29344 6.08244 3.23438 6.2255 3.23438 6.37463C3.23438 6.52375 3.29344 6.66681 3.39864 6.7725L8.22789 11.6017C8.33358 11.707 8.47664 11.766 8.62576 11.766C8.77489 11.766 8.91794 11.707 9.02364 11.6017L14.6029 6.0225C14.8219 5.8035 15.0004 5.3715 15.0004 5.0625V0.5625C15 0.413437 14.9406 0.270593 14.8352 0.16519C14.7298 0.0597863 14.5869 0.000395919 14.4379 0V0ZM11.6254 4.5C11.4776 4.49995 11.3313 4.47079 11.1948 4.41419C11.0582 4.35759 10.9342 4.27466 10.8297 4.17012C10.7253 4.06558 10.6424 3.9415 10.5859 3.80494C10.5294 3.66839 10.5003 3.52204 10.5004 3.37425C10.5004 3.22646 10.5296 3.08013 10.5862 2.94362C10.6428 2.8071 10.7257 2.68307 10.8303 2.5786C10.9348 2.47413 11.0589 2.39128 11.1954 2.33477C11.332 2.27826 11.4783 2.2492 11.6261 2.24925C11.9246 2.24935 12.2108 2.36801 12.4218 2.57913C12.6328 2.79025 12.7512 3.07653 12.7511 3.375C12.751 3.67347 12.6324 3.95967 12.4213 4.17065C12.2101 4.38163 11.9239 4.5001 11.6254 4.5Z" fill="white"/>
<path d="M1.50039 6.375L7.87539 0H6.93789C6.62889 0 6.19614 0.17925 5.97789 0.3975L0.398636 5.97675C0.293435 6.08244 0.234375 6.2255 0.234375 6.37463C0.234375 6.52375 0.293435 6.66681 0.398636 6.7725L5.22789 11.6017C5.33358 11.707 5.47664 11.766 5.62576 11.766C5.77489 11.766 5.91794 11.707 6.02364 11.6017L6.37614 11.2492L1.50114 6.37425L1.50039 6.375Z" fill="white"/>
</g>
<defs>
<clipPath id="clip0">
<rect width="15" height="12" fill="white"/>
</clipPath>
</defs>
</svg>
