<svg width="9" height="12" viewBox="0 0 9 12" fill="none" xmlns="http://www.w3.org/2000/svg">
<path d="M2.13404 0.260489C2.15829 0.184861 2.20592 0.118885 2.27008 0.07207C2.33424 0.0252552 2.4116 1.95013e-05 2.49102 0H6.86584C6.92691 1.28296e-05 6.98705 0.0149393 7.04104 0.0434822C7.09502 0.0720251 7.14122 0.113321 7.17561 0.16378C7.21001 0.214239 7.23156 0.272334 7.23839 0.333017C7.24523 0.3937 7.23714 0.455134 7.21483 0.511979L6.04088 3.49986H8.61577C8.68863 3.49983 8.75992 3.52104 8.82092 3.56087C8.88192 3.60071 8.93 3.65745 8.95928 3.72417C8.98855 3.79089 8.99776 3.86469 8.98577 3.93655C8.97378 4.00842 8.94111 4.07523 8.89176 4.12883L1.76705 11.8785C1.71065 11.94 1.63535 11.9809 1.55307 11.9948C1.47079 12.0087 1.38624 11.9947 1.3128 11.9551C1.23935 11.9155 1.18121 11.8526 1.14757 11.7762C1.11393 11.6998 1.10672 11.6144 1.12708 11.5335L2.26103 6.99971H0.491104C0.432058 6.9997 0.373849 6.98574 0.321218 6.95898C0.268587 6.93221 0.22302 6.8934 0.188227 6.84569C0.153434 6.79798 0.130398 6.74274 0.120996 6.68444C0.111593 6.62615 0.116089 6.56646 0.134118 6.51023L2.13404 0.260489Z" fill="#8D99FF"/>
</svg>
