<svg width="12" height="12" viewBox="0 0 12 12" fill="none" xmlns="http://www.w3.org/2000/svg">
<g clip-path="url(#clip0)">
<path d="M3.63404 0.260489C3.65829 0.184861 3.70592 0.118885 3.77008 0.07207C3.83424 0.0252552 3.9116 1.95013e-05 3.99102 0H8.36584C8.42691 1.28296e-05 8.48705 0.0149393 8.54104 0.0434822C8.59502 0.0720251 8.64122 0.113321 8.67561 0.16378C8.71001 0.214239 8.73156 0.272334 8.73839 0.333017C8.74523 0.3937 8.73714 0.455134 8.71483 0.511979L7.54088 3.49986H10.1158C10.1886 3.49983 10.2599 3.52104 10.3209 3.56087C10.3819 3.60071 10.43 3.65745 10.4593 3.72417C10.4886 3.79089 10.4978 3.86469 10.4858 3.93655C10.4738 4.00842 10.4411 4.07523 10.3918 4.12883L3.26705 11.8785C3.21065 11.94 3.13535 11.9809 3.05307 11.9948C2.97079 12.0087 2.88624 11.9947 2.8128 11.9551C2.73935 11.9155 2.68121 11.8526 2.64757 11.7762C2.61393 11.6998 2.60672 11.6144 2.62708 11.5335L3.76103 6.99971H1.9911C1.93206 6.9997 1.87385 6.98574 1.82122 6.95898C1.76859 6.93221 1.72302 6.8934 1.68823 6.84569C1.65343 6.79798 1.6304 6.74274 1.621 6.68444C1.61159 6.62615 1.61609 6.56646 1.63412 6.51023L3.63404 0.260489Z" fill="white"/>
</g>
<defs>
<clipPath id="clip0">
<rect width="12" height="12" fill="white"/>
</clipPath>
</defs>
</svg>
