<svg width="12" height="12" viewBox="0 0 12 12" fill="none" xmlns="http://www.w3.org/2000/svg">
<path d="M11.6309 11.6309C11.3848 11.877 11.0879 12 10.7402 12C10.3926 12 10.0977 11.8789 9.85547 11.6367L7.125 8.90625C6.82812 8.60938 6.71094 8.25391 6.77344 7.83984L4.55859 5.625C3.96484 6.10156 3.32031 6.47656 2.625 6.75C1.47656 6.15625 0.601562 5.28125 0 4.125C0.375 3.1875 0.923828 2.35938 1.64648 1.64062C2.36914 0.921875 3.19922 0.375 4.13672 0C5.28516 0.601562 6.16016 1.47656 6.76172 2.625C6.48047 3.32812 6.10156 3.97266 5.625 4.55859L7.83984 6.77344C8.25391 6.71094 8.60938 6.82812 8.90625 7.125L11.6367 9.85547C11.8789 10.0977 12 10.3926 12 10.7402C12 11.0879 11.877 11.3848 11.6309 11.6309Z" fill="white"/>
</svg>
