<svg width="40" height="40" viewBox="0 0 40 40" fill="none" xmlns="http://www.w3.org/2000/svg">
<path d="M20 2.5C15.376 2.55579 10.9572 4.41744 7.68731 7.68731C4.41744 10.9572 2.55579 15.376 2.5 20C2.55579 24.624 4.41744 29.0428 7.68731 32.3127C10.9572 35.5826 15.376 37.4442 20 37.5C24.624 37.4442 29.0428 35.5826 32.3127 32.3127C35.5826 29.0428 37.4442 24.624 37.5 20C37.4442 15.376 35.5826 10.9572 32.3127 7.68731C29.0428 4.41744 24.624 2.55579 20 2.5ZM30 21.25H21.25V30H18.75V21.25H10V18.75H18.75V10H21.25V18.75H30V21.25Z" fill="#8D99FF"/>
</svg>
