<svg width="53" height="53" viewBox="0 0 53 53" fill="none" xmlns="http://www.w3.org/2000/svg">
<g filter="url(#filter0_d_114_543)">
<path d="M26.5 4C14.0736 4 4 14.0736 4 26.5C4 38.9264 14.0736 49 26.5 49C38.9264 49 49 38.9264 49 26.5C49 14.0736 38.9264 4 26.5 4Z" fill="white"/>
</g>
<path d="M29.8345 18.793C29.9752 18.7887 30.1153 18.8131 30.2463 18.8646C30.3773 18.9162 30.4964 18.9939 30.5965 19.093C30.692 19.1852 30.7658 19.2973 30.8129 19.4214C30.8599 19.5456 30.8789 19.6785 30.8685 19.8109C30.8581 19.9432 30.8186 20.0715 30.7528 20.1868C30.6869 20.302 30.5964 20.4013 30.4877 20.4775L23.5187 26.2127C23.4187 26.276 23.3362 26.3636 23.2791 26.4673C23.222 26.5711 23.192 26.6875 23.192 26.806C23.192 26.9244 23.222 27.0409 23.2791 27.1446C23.3362 27.2483 23.4187 27.3359 23.5187 27.3992L30.5965 32.8375C30.7052 32.9136 30.7957 33.0129 30.8615 33.1281C30.9274 33.2434 30.9669 33.3718 30.9773 33.5041C30.9877 33.6364 30.9687 33.7694 30.9216 33.8935C30.8746 34.0176 30.8007 34.1298 30.7052 34.222C30.5092 34.4257 30.2441 34.5488 29.962 34.5671C29.6799 34.5854 29.4012 34.4976 29.1805 34.321L22.2115 28.8827C21.8851 28.6411 21.6175 28.3288 21.4289 27.9692C21.2404 27.6095 21.1356 27.2118 21.1225 26.806C21.125 26.4093 21.214 26.0181 21.3833 25.6594C21.5526 25.3007 21.7981 24.9833 22.1027 24.7292L29.0717 18.994C29.3116 18.881 29.5701 18.8129 29.8345 18.793Z" fill="#DC3545"/>
<defs>
<filter id="filter0_d_114_543" x="0" y="0" width="53" height="53" filterUnits="userSpaceOnUse" color-interpolation-filters="sRGB">
<feFlood flood-opacity="0" result="BackgroundImageFix"/>
<feColorMatrix in="SourceAlpha" type="matrix" values="0 0 0 0 0 0 0 0 0 0 0 0 0 0 0 0 0 0 127 0" result="hardAlpha"/>
<feOffset/>
<feGaussianBlur stdDeviation="2"/>
<feColorMatrix type="matrix" values="0 0 0 0 0 0 0 0 0 0.160784 0 0 0 0 0.47451 0 0 0 0.302 0"/>
<feBlend mode="normal" in2="BackgroundImageFix" result="effect1_dropShadow_114_543"/>
<feBlend mode="normal" in="SourceGraphic" in2="effect1_dropShadow_114_543" result="shape"/>
</filter>
</defs>
</svg>
