<svg width="54" height="54" viewBox="0 0 54 54" fill="none" xmlns="http://www.w3.org/2000/svg">
<g filter="url(#filter0_d_114_548)">
<path d="M26.5021 49.0021C38.9285 49.0021 49.0021 38.9285 49.0021 26.5021C49.0021 14.0757 38.9285 4.00208 26.5021 4.00208C14.0757 4.00208 4.00208 14.0757 4.00208 26.5021C4.00208 38.9285 14.0757 49.0021 26.5021 49.0021Z" fill="white"/>
</g>
<path d="M23.1923 34.1521C23.0528 34.1568 22.9138 34.1331 22.7837 34.0824C22.6536 34.0318 22.5351 33.9552 22.4356 33.8573C22.3412 33.7656 22.2682 33.6542 22.2218 33.5311C22.1754 33.408 22.1566 33.2761 22.1669 33.1449C22.1772 33.0138 22.2163 32.8865 22.2814 32.7721C22.3465 32.6577 22.436 32.5591 22.5436 32.4833L29.4616 26.7908C29.5609 26.728 29.6427 26.641 29.6993 26.5381C29.756 26.4352 29.7857 26.3196 29.7857 26.2021C29.7857 26.0845 29.756 25.9689 29.6993 25.866C29.6427 25.7631 29.5609 25.6761 29.4616 25.6133L22.4356 20.2133C22.328 20.1375 22.2385 20.0389 22.1734 19.9245C22.1083 19.8101 22.0692 19.6828 22.0589 19.5517C22.0486 19.4205 22.0674 19.2886 22.1138 19.1655C22.1602 19.0424 22.2332 18.931 22.3276 18.8393C22.5222 18.6371 22.7853 18.515 23.0653 18.4968C23.3453 18.4786 23.622 18.5657 23.8411 18.7411L30.7591 24.1411C31.083 24.3809 31.3484 24.6908 31.5356 25.0477C31.7227 25.4046 31.8267 25.7993 31.8398 26.2021C31.837 26.5958 31.7483 26.9843 31.5799 27.3402C31.4115 27.6962 31.1675 28.0111 30.8648 28.2631L23.9468 33.9556C23.7093 34.0663 23.4537 34.1329 23.1923 34.1521Z" fill="#DC3545"/>
<defs>
<filter id="filter0_d_114_548" x="0.0020752" y="0.0020752" width="53" height="53" filterUnits="userSpaceOnUse" color-interpolation-filters="sRGB">
<feFlood flood-opacity="0" result="BackgroundImageFix"/>
<feColorMatrix in="SourceAlpha" type="matrix" values="0 0 0 0 0 0 0 0 0 0 0 0 0 0 0 0 0 0 127 0" result="hardAlpha"/>
<feOffset/>
<feGaussianBlur stdDeviation="2"/>
<feColorMatrix type="matrix" values="0 0 0 0 0 0 0 0 0 0.160784 0 0 0 0 0.47451 0 0 0 0.302 0"/>
<feBlend mode="normal" in2="BackgroundImageFix" result="effect1_dropShadow_114_548"/>
<feBlend mode="normal" in="SourceGraphic" in2="effect1_dropShadow_114_548" result="shape"/>
</filter>
</defs>
</svg>
