<svg width="24" height="24" viewBox="0 0 24 24" fill="none" xmlns="http://www.w3.org/2000/svg">
<path fill-rule="evenodd" clip-rule="evenodd" d="M22.5004 12C22.5004 11.8011 22.4213 11.6103 22.2807 11.4696C22.14 11.329 21.9493 11.25 21.7504 11.25H4.06086L8.78136 6.53097C8.8511 6.46124 8.90641 6.37846 8.94415 6.28735C8.98189 6.19624 9.00131 6.09859 9.00131 5.99997C9.00131 5.90135 8.98189 5.8037 8.94415 5.7126C8.90641 5.62149 8.8511 5.5387 8.78136 5.46897C8.71163 5.39924 8.62885 5.34392 8.53774 5.30619C8.44663 5.26845 8.34898 5.24902 8.25036 5.24902C8.15175 5.24902 8.0541 5.26845 7.96299 5.30619C7.87188 5.34392 7.7891 5.39924 7.71936 5.46897L1.71936 11.469C1.64952 11.5386 1.5941 11.6214 1.5563 11.7125C1.51849 11.8036 1.49902 11.9013 1.49902 12C1.49902 12.0986 1.51849 12.1963 1.5563 12.2874C1.5941 12.3785 1.64952 12.4613 1.71936 12.531L7.71936 18.531C7.7891 18.6007 7.87188 18.656 7.96299 18.6938C8.0541 18.7315 8.15175 18.7509 8.25036 18.7509C8.34898 18.7509 8.44663 18.7315 8.53774 18.6938C8.62885 18.656 8.71163 18.6007 8.78136 18.531C8.8511 18.4612 8.90641 18.3785 8.94415 18.2873C8.98189 18.1962 9.00131 18.0986 9.00131 18C9.00131 17.9014 8.98189 17.8037 8.94415 17.7126C8.90641 17.6215 8.8511 17.5387 8.78136 17.469L4.06086 12.75H21.7504C21.9493 12.75 22.14 12.671 22.2807 12.5303C22.4213 12.3896 22.5004 12.1989 22.5004 12Z" fill="#A3AED0"/>
</svg>
