<svg width="16" height="16" viewBox="0 0 16 16" fill="none" xmlns="http://www.w3.org/2000/svg">
<g clip-path="url(#clip0_202_543)">
<path d="M4.18263 0H3.78082C3.72955 0 3.68092 0.0107733 3.63382 0.0260813C3.39846 0.102412 3.22449 0.353684 3.22449 0.6551V0.931694V1.63966V2.008C3.22449 2.07644 3.23589 2.14111 3.25243 2.20302C3.32326 2.46897 3.53167 2.6631 3.78082 2.6631H4.18263C4.48994 2.6631 4.73896 2.36984 4.73896 2.008V1.63966V0.931694V0.6551C4.73896 0.293264 4.48994 0 4.18263 0Z" fill="#8D99FF"/>
<path d="M12.0915 0H11.6896C11.3823 0 11.1333 0.293264 11.1333 0.6551V0.931694V1.63966V2.008C11.1333 2.36984 11.3823 2.6631 11.6896 2.6631H12.0915C12.3988 2.6631 12.6478 2.36984 12.6478 2.008V1.63966V0.931694V0.6551C12.6477 0.293264 12.3987 0 12.0915 0Z" fill="#8D99FF"/>
<path d="M14.1439 1.63966H13.149V2.008C13.149 2.64567 12.6745 3.16441 12.0913 3.16441H11.6895C11.1064 3.16441 10.6319 2.64567 10.6319 2.008V1.63966H5.24027V2.008C5.24027 2.64567 4.76578 3.16441 4.18263 3.16441H3.78082C3.19764 3.16441 2.72317 2.64567 2.72317 2.008V1.63966H1.8563C1.30411 1.63966 0.856293 2.05951 0.856293 2.57712V15.0625C0.856293 15.5811 1.30408 16 1.8563 16H14.1437C14.6964 16 15.1437 15.581 15.1437 15.0625V2.57725C15.1438 2.05964 14.6966 1.63966 14.1439 1.63966ZM13.8338 14.6239L2.12988 14.6194V4.55353H13.8338V14.6239Z" fill="#8D99FF"/>
<path d="M9.25342 6.97926H12.3315C12.5987 6.97926 12.8148 6.71245 12.8148 6.38269C12.8148 6.05294 12.5986 5.78613 12.3315 5.78613H9.25342C8.98624 5.78613 8.77014 6.05294 8.77014 6.38269C8.77014 6.71232 8.98621 6.97926 9.25342 6.97926Z" fill="#8D99FF"/>
<path d="M9.25342 9.13416H12.3315C12.5987 9.13416 12.8148 8.86734 12.8148 8.53759C12.8148 8.20786 12.5986 7.94105 12.3315 7.94105H9.25342C8.98624 7.94105 8.77014 8.20786 8.77014 8.53759C8.77014 8.86734 8.98621 9.13416 9.25342 9.13416Z" fill="#8D99FF"/>
<path d="M9.25342 11.2891H12.3315C12.5987 11.2891 12.8148 11.0222 12.8148 10.6925C12.8148 10.3627 12.5986 10.0959 12.3315 10.0959H9.25342C8.98624 10.0959 8.77014 10.3627 8.77014 10.6925C8.77014 11.0222 8.98621 11.2891 9.25342 11.2891Z" fill="#8D99FF"/>
<path d="M9.25342 13.4441H12.3315C12.5987 13.4441 12.8148 13.1772 12.8148 12.8475C12.8148 12.5178 12.5986 12.2509 12.3315 12.2509H9.25342C8.98624 12.2509 8.77014 12.5178 8.77014 12.8475C8.77014 13.1772 8.98621 13.4441 9.25342 13.4441Z" fill="#8D99FF"/>
<path d="M3.80164 6.97926H6.87971C7.14689 6.97926 7.36296 6.71245 7.36296 6.38269C7.36296 6.05294 7.14676 5.78613 6.87971 5.78613H3.80164C3.53443 5.78613 3.31836 6.05294 3.31836 6.38269C3.31839 6.71232 3.53443 6.97926 3.80164 6.97926Z" fill="#8D99FF"/>
<path d="M3.80164 9.13416H6.87971C7.14689 9.13416 7.36296 8.86734 7.36296 8.53759C7.36296 8.20786 7.14676 7.94105 6.87971 7.94105H3.80164C3.53443 7.94105 3.31836 8.20786 3.31836 8.53759C3.31839 8.86734 3.53443 9.13416 3.80164 9.13416Z" fill="#8D99FF"/>
<path d="M3.80164 11.2891H6.87971C7.14689 11.2891 7.36296 11.0222 7.36296 10.6925C7.36296 10.3627 7.14676 10.0959 6.87971 10.0959H3.80164C3.53443 10.0959 3.31836 10.3627 3.31836 10.6925C3.31836 11.0222 3.53443 11.2891 3.80164 11.2891Z" fill="#8D99FF"/>
<path d="M3.80164 13.4441H6.87971C7.14689 13.4441 7.36296 13.1772 7.36296 12.8475C7.36296 12.5178 7.14676 12.2509 6.87971 12.2509H3.80164C3.53443 12.2509 3.31836 12.5178 3.31836 12.8475C3.31839 13.1772 3.53443 13.4441 3.80164 13.4441Z" fill="#8D99FF"/>
</g>
<defs>
<clipPath id="clip0_202_543">
<rect width="16" height="16" fill="white"/>
</clipPath>
</defs>
</svg>
