<svg width="16" height="18" viewBox="0 0 16 18" fill="none" xmlns="http://www.w3.org/2000/svg">
<path fill-rule="evenodd" clip-rule="evenodd" d="M14.0697 2.99775L14.0711 3.00063C14.6041 3.00207 15.0853 3.21815 15.4339 3.56676C15.7796 3.91393 15.9957 4.39363 15.9957 4.92374H15.9986V4.92662V15.771V15.7724H15.9957C15.9942 16.3025 15.7782 16.7851 15.4295 17.1351C15.0824 17.4809 14.6027 17.6969 14.0726 17.6969V17.6998H14.0697H5.54317H5.54173V17.6969C5.01017 17.6955 4.5276 17.4809 4.17899 17.1308C3.83326 16.7836 3.61718 16.304 3.61574 15.7738V15.7738C3.61574 12.0342 3.61574 8.66625 3.61574 4.92662V4.92518H3.61862C3.62006 4.39363 3.83758 3.91105 4.18619 3.56244C4.53336 3.21671 5.01161 3.00063 5.54317 2.99919V2.99631H5.54605C8.38678 2.99775 11.229 2.99775 14.0697 2.99775ZM0.00288107 10.8587L0 1.92887V1.92743H0.00288107C0.0043216 1.39588 0.221842 0.913298 0.569011 0.564689C0.916179 0.218961 1.39588 0.00288107 1.92599 0.00144053V0H1.92887H10.4554C11.5632 0 11.7375 1.43477 10.4568 1.46358H1.93031H1.92743V1.4607C1.80067 1.4607 1.68542 1.514 1.60043 1.60043C1.51544 1.68398 1.46214 1.80211 1.46214 1.92743H1.46502V1.92887V2.38552C1.46502 5.21041 1.46502 8.03385 1.46502 10.8573C1.46502 12.0472 0.00288107 12.1134 0.00288107 10.8587ZM14.5364 15.7724V4.92662V4.92374H14.5393C14.5393 4.79842 14.486 4.68173 14.3996 4.59674C14.3146 4.51319 14.1979 4.45845 14.0711 4.45845V4.46133H14.0697H5.54317H5.54029V4.45845C5.41352 4.45845 5.29828 4.51319 5.21329 4.59818C5.1283 4.68173 5.075 4.79986 5.075 4.92518H5.07788V4.92662V15.771V15.7738H5.075C5.075 15.9006 5.12974 16.0158 5.21473 16.1008C5.29972 16.1858 5.4164 16.2391 5.54173 16.2391V16.2362H5.54317H14.0697H14.0726V16.2391C14.1979 16.2391 14.3146 16.1844 14.3996 16.0994C14.4846 16.0158 14.5379 15.8977 14.5379 15.7724H14.5364Z" fill="#8D99FF"/>
</svg>
