<svg width="45" height="31" viewBox="0 0 45 31" fill="none" xmlns="http://www.w3.org/2000/svg">
<path d="M39.5033 0.0889893H5.49665C2.46593 0.0889893 0 2.55492 0 5.58564V25.1422C0 28.1729 2.46593 30.6388 5.49665 30.6388H39.5033C42.5341 30.6388 45 28.1729 45 25.1422V5.58624C45.0006 2.55492 42.5347 0.0889893 39.5033 0.0889893ZM36.8175 3.67493L22.5 12.8992L8.18252 3.67493H36.8175ZM39.5033 27.0535H5.49665C4.44298 27.0535 3.58594 26.1959 3.58594 25.1428V5.68784L21.3937 17.139C21.4176 17.1539 21.4433 17.1641 21.4678 17.1778C21.4935 17.1921 21.5198 17.2059 21.5461 17.219C21.6842 17.2902 21.8264 17.3475 21.9717 17.3852C21.9866 17.3894 22.0016 17.3912 22.0165 17.3947C22.1761 17.4324 22.3374 17.4557 22.4988 17.4557C22.4994 17.4557 22.5 17.4557 22.5 17.4557C22.5012 17.4557 22.5018 17.4557 22.5024 17.4557C22.6638 17.4557 22.8251 17.433 22.9847 17.3947C22.9996 17.3912 23.0146 17.3894 23.0295 17.3852C23.1748 17.3475 23.3164 17.2902 23.4551 17.219C23.4814 17.2059 23.5077 17.1921 23.5333 17.1778C23.5579 17.1641 23.5836 17.1539 23.6075 17.139L41.4153 5.68784V25.1422C41.4147 26.1959 40.557 27.0535 39.5033 27.0535Z" fill="white"/>
</svg>
