<svg width="46" height="56" viewBox="0 0 46 56" fill="none" xmlns="http://www.w3.org/2000/svg">
<path d="M22.536 0C10.1294 0 0.0359993 10.0934 0.0359993 22.5C0.0359993 27.6193 1.71366 32.4406 4.88769 36.4426C8.99745 41.6243 20.9488 53.9277 21.4554 54.4488L22.5358 55.5603L23.6164 54.449C24.1234 53.9275 36.0783 41.6215 40.1887 36.4381C43.3598 32.4392 45.036 27.6196 45.036 22.5C45.036 10.0934 34.9426 0 22.536 0ZM37.827 34.5652C34.5181 38.7378 25.6318 48.02 22.536 51.2305C19.4405 48.0202 10.5574 38.7407 7.24926 34.5696C4.50218 31.1058 3.05013 26.9323 3.05013 22.5C3.05013 11.7554 11.7914 3.01413 22.536 3.01413C33.2805 3.01413 42.0219 11.7554 42.0217 22.5C42.0217 26.9326 40.5712 31.1047 37.827 34.5652Z" fill="white"/>
<path d="M22.536 8.93161C15.1921 8.93161 9.21748 14.9062 9.21748 22.2501C9.21748 29.594 15.1922 35.5686 22.536 35.5686C29.8798 35.5686 35.8545 29.5939 35.8545 22.2501C35.8545 14.9064 29.8799 8.93161 22.536 8.93161ZM22.536 32.5545C16.8541 32.5545 12.2316 27.9319 12.2316 22.2501C12.2316 16.5682 16.8542 11.9457 22.536 11.9457C28.2178 11.9457 32.8402 16.5684 32.8404 22.2501C32.8404 27.9321 28.2179 32.5545 22.536 32.5545Z" fill="white"/>
</svg>
