<svg width="213" height="173" viewBox="0 0 213 173" fill="none" xmlns="http://www.w3.org/2000/svg">
<g clip-path="url(#clip0_206_542)">
<path d="M167.702 134.667C167.68 134.628 167.65 134.594 167.614 134.567C167.579 134.54 167.538 134.52 167.495 134.509C167.451 134.498 167.406 134.495 167.362 134.502C167.318 134.508 167.275 134.523 167.237 134.546L166.104 135.214L165.438 134.079C165.392 134.001 165.317 133.945 165.23 133.923C165.142 133.9 165.05 133.914 164.972 133.96C164.895 134.006 164.839 134.081 164.816 134.169C164.794 134.256 164.807 134.349 164.853 134.427L165.52 135.562L164.388 136.231C164.349 136.253 164.315 136.283 164.289 136.319C164.262 136.355 164.243 136.396 164.232 136.439C164.215 136.505 164.217 136.574 164.239 136.637C164.261 136.701 164.302 136.757 164.356 136.797C164.41 136.838 164.474 136.861 164.541 136.865C164.609 136.868 164.675 136.852 164.733 136.817L165.865 136.148L166.53 137.284C166.567 137.345 166.62 137.393 166.685 137.421C166.749 137.45 166.821 137.458 166.89 137.444C166.928 137.437 166.964 137.423 166.996 137.403C167.074 137.357 167.13 137.283 167.152 137.195C167.175 137.108 167.162 137.015 167.116 136.938L166.45 135.802L167.582 135.134C167.621 135.111 167.654 135.081 167.681 135.045C167.708 135.009 167.728 134.969 167.739 134.925C167.75 134.882 167.753 134.837 167.746 134.792C167.74 134.748 167.725 134.705 167.702 134.667Z" fill="#A3AED0"/>
<path d="M170.561 142.151C170.268 142.151 169.981 142.064 169.738 141.901C169.495 141.738 169.305 141.506 169.193 141.234C169.081 140.963 169.051 140.665 169.109 140.377C169.166 140.089 169.307 139.824 169.514 139.616C169.721 139.409 169.985 139.267 170.272 139.21C170.559 139.153 170.857 139.182 171.127 139.295C171.398 139.407 171.629 139.597 171.791 139.841C171.954 140.086 172.041 140.373 172.041 140.666C172.041 141.06 171.885 141.437 171.607 141.716C171.329 141.994 170.953 142.151 170.561 142.151ZM170.561 139.976C170.424 139.976 170.291 140.017 170.177 140.093C170.064 140.169 169.976 140.277 169.924 140.403C169.871 140.53 169.858 140.669 169.885 140.803C169.911 140.937 169.977 141.06 170.074 141.157C170.17 141.254 170.293 141.319 170.427 141.346C170.561 141.372 170.699 141.358 170.825 141.306C170.951 141.253 171.059 141.165 171.134 141.051C171.21 140.937 171.25 140.803 171.25 140.666C171.249 140.483 171.177 140.308 171.047 140.178C170.918 140.049 170.743 139.976 170.561 139.976Z" fill="#A3AED0"/>
<path d="M21.0659 163.933C20.773 163.934 20.4866 163.847 20.243 163.684C19.9993 163.521 19.8094 163.289 19.6971 163.018C19.5848 162.747 19.5553 162.448 19.6123 162.16C19.6692 161.872 19.8101 161.607 20.0171 161.399C20.2241 161.192 20.4879 161.05 20.7751 160.993C21.0623 160.935 21.3601 160.965 21.6307 161.077C21.9013 161.189 22.1326 161.38 22.2953 161.624C22.4581 161.868 22.5449 162.155 22.5449 162.449C22.5445 162.842 22.3886 163.219 22.1114 163.498C21.8341 163.776 21.4581 163.933 21.0659 163.933ZM21.0659 161.758C20.9295 161.758 20.7963 161.798 20.6829 161.874C20.5696 161.95 20.4812 162.058 20.4291 162.184C20.3769 162.311 20.3632 162.449 20.3898 162.584C20.4164 162.718 20.4821 162.841 20.5785 162.937C20.6749 163.034 20.7977 163.1 20.9314 163.127C21.0651 163.153 21.2037 163.14 21.3296 163.087C21.4556 163.035 21.5632 162.946 21.639 162.833C21.7147 162.719 21.7551 162.585 21.7551 162.449C21.7544 162.266 21.6815 162.091 21.5524 161.961C21.4232 161.832 21.2483 161.759 21.0659 161.759V161.758Z" fill="#A3AED0"/>
<path d="M184.97 4.32472C184.677 4.32472 184.391 4.23768 184.147 4.07461C183.904 3.91154 183.714 3.67976 183.602 3.40856C183.49 3.13737 183.461 2.83893 183.518 2.55098C183.575 2.26303 183.715 1.99849 183.922 1.79081C184.129 1.58312 184.393 1.44161 184.68 1.38417C184.967 1.32672 185.265 1.35592 185.535 1.46807C185.806 1.58022 186.037 1.77029 186.2 2.01425C186.363 2.25821 186.45 2.5451 186.45 2.83868C186.45 3.03376 186.412 3.22697 186.338 3.40725C186.264 3.58754 186.155 3.75137 186.017 3.88938C185.88 4.02739 185.716 4.13688 185.537 4.21157C185.357 4.28627 185.164 4.32472 184.97 4.32472ZM184.97 2.1503C184.833 2.1503 184.7 2.19084 184.587 2.26679C184.473 2.34274 184.385 2.45069 184.333 2.577C184.281 2.7033 184.267 2.84228 184.294 2.97636C184.32 3.11045 184.386 3.23361 184.482 3.33028C184.579 3.42695 184.702 3.49278 184.835 3.51945C184.969 3.54612 185.108 3.53243 185.233 3.48011C185.359 3.4278 185.467 3.3392 185.543 3.22553C185.619 3.11186 185.659 2.97822 185.659 2.84151C185.659 2.65819 185.586 2.48238 185.457 2.35275C185.328 2.22312 185.153 2.1503 184.97 2.1503Z" fill="#A3AED0"/>
<path d="M210.306 41.916C210.225 41.956 210.164 42.0263 210.135 42.1116C210.105 42.197 210.111 42.2904 210.15 42.3716L210.716 43.5525L209.539 44.1202C209.499 44.1396 209.463 44.1668 209.433 44.2003C209.403 44.2338 209.38 44.2729 209.366 44.3153C209.351 44.3577 209.345 44.4026 209.348 44.4473C209.351 44.492 209.363 44.5357 209.383 44.5758C209.402 44.616 209.429 44.6519 209.463 44.6815C209.496 44.711 209.535 44.7334 209.577 44.7476C209.619 44.7623 209.664 44.7686 209.708 44.7659C209.753 44.7632 209.796 44.7517 209.836 44.7319L211.014 44.1642L211.58 45.3451C211.62 45.4262 211.69 45.4883 211.775 45.5183C211.817 45.5331 211.862 45.5393 211.906 45.5364C211.951 45.5334 211.994 45.5215 212.034 45.5012C212.074 45.4818 212.11 45.4547 212.14 45.4213C212.169 45.3879 212.192 45.3491 212.207 45.3069C212.221 45.2647 212.228 45.22 212.225 45.1754C212.222 45.1308 212.211 45.0872 212.191 45.047L211.625 43.8661L212.801 43.2913C212.841 43.2717 212.877 43.2444 212.907 43.2109C212.937 43.1775 212.959 43.1384 212.974 43.0961C212.989 43.0538 212.995 43.0091 212.992 42.9644C212.989 42.9197 212.978 42.876 212.958 42.8357C212.939 42.7954 212.912 42.7594 212.878 42.7297C212.845 42.7 212.806 42.6772 212.764 42.6626C212.722 42.6479 212.677 42.6418 212.632 42.6445C212.588 42.6471 212.544 42.6586 212.504 42.6782L211.326 43.253L210.753 42.0735C210.714 41.9942 210.645 41.9335 210.561 41.9041C210.478 41.8747 210.386 41.879 210.306 41.916Z" fill="#A3AED0"/>
<path d="M188.922 70.1636C188.629 70.1636 188.343 70.0765 188.099 69.9134C187.856 69.7502 187.666 69.5184 187.554 69.2471C187.442 68.9758 187.413 68.6773 187.47 68.3893C187.527 68.1013 187.668 67.8368 187.875 67.6292C188.082 67.4215 188.346 67.2801 188.633 67.2229C188.92 67.1656 189.218 67.195 189.488 67.3073C189.759 67.4197 189.99 67.61 190.153 67.8541C190.315 68.0983 190.402 68.3853 190.402 68.679C190.402 69.0726 190.246 69.45 189.968 69.7283C189.691 70.0067 189.314 70.1632 188.922 70.1636ZM188.922 67.9877C188.786 67.9877 188.652 68.0283 188.539 68.1042C188.426 68.1802 188.337 68.2881 188.285 68.4144C188.233 68.5407 188.219 68.6797 188.246 68.8138C188.272 68.9479 188.338 69.0711 188.434 69.1677C188.531 69.2644 188.654 69.3302 188.787 69.3569C188.921 69.3836 189.06 69.3699 189.186 69.3176C189.312 69.2652 189.419 69.1766 189.495 69.063C189.571 68.9493 189.611 68.8157 189.611 68.679C189.611 68.5881 189.594 68.498 189.559 68.414C189.524 68.33 189.474 68.2536 189.41 68.1893C189.346 68.1249 189.27 68.0739 189.186 68.0391C189.102 68.0043 189.012 67.9863 188.922 67.9863V67.9877Z" fill="#A3AED0"/>
<path d="M0.181031 90.856C0.115592 90.9179 0.0773463 91.0034 0.0746926 91.0936C0.0720389 91.1838 0.105194 91.2714 0.166878 91.3371L1.0628 92.2952L0.107433 93.1936C0.0584318 93.2397 0.0241375 93.2992 0.00888233 93.3648C-0.00637289 93.4304 -0.0019046 93.499 0.0217227 93.5621C0.04535 93.6251 0.0870763 93.6797 0.14163 93.719C0.196184 93.7582 0.261118 93.7804 0.328229 93.7827C0.416454 93.7842 0.501781 93.7511 0.566009 93.6904L1.52137 92.792L2.4173 93.75C2.44764 93.7826 2.48418 93.8089 2.52477 93.8272C2.56536 93.8454 2.60918 93.8554 2.65366 93.8565C2.74355 93.8594 2.831 93.8268 2.8971 93.7656C2.92981 93.735 2.95617 93.6982 2.97466 93.6574C2.99316 93.6165 3.00342 93.5724 3.00487 93.5276C3.00632 93.4827 2.99892 93.438 2.98309 93.3961C2.96727 93.3541 2.94334 93.3157 2.91267 93.283L2.01675 92.3264L2.97212 91.428C3.02319 91.3795 3.05807 91.3164 3.07201 91.2473C3.08594 91.1782 3.07824 91.1065 3.04996 91.0419C3.03514 91.0063 3.01405 90.9736 2.98769 90.9454C2.92566 90.8797 2.84019 90.8413 2.75 90.8386C2.65981 90.836 2.57224 90.8693 2.50646 90.9312L1.55676 91.8311L0.660838 90.8744C0.599629 90.8082 0.51471 90.7691 0.424743 90.7656C0.334775 90.7622 0.247117 90.7947 0.181031 90.856Z" fill="#A3AED0"/>
<path d="M14.7661 107.176C14.4732 107.176 14.1868 107.089 13.9432 106.926C13.6995 106.763 13.5096 106.531 13.3973 106.26C13.285 105.989 13.2555 105.69 13.3125 105.402C13.3694 105.114 13.5103 104.849 13.7173 104.642C13.9243 104.434 14.1881 104.292 14.4753 104.235C14.7625 104.178 15.0603 104.207 15.3309 104.319C15.6015 104.432 15.8328 104.622 15.9955 104.866C16.1582 105.11 16.2451 105.397 16.2451 105.691C16.2447 106.084 16.0888 106.461 15.8116 106.74C15.5343 107.018 15.1583 107.175 14.7661 107.176ZM14.7661 105C14.6297 105 14.4965 105.04 14.3831 105.116C14.2698 105.192 14.1814 105.3 14.1292 105.426C14.0771 105.553 14.0634 105.692 14.09 105.826C14.1166 105.96 14.1823 106.083 14.2787 106.18C14.3751 106.276 14.4979 106.342 14.6316 106.369C14.7653 106.396 14.9039 106.382 15.0298 106.33C15.1558 106.277 15.2634 106.189 15.3392 106.075C15.4149 105.961 15.4553 105.828 15.4553 105.691C15.455 105.508 15.3822 105.332 15.253 105.203C15.1239 105.073 14.9488 105 14.7661 105Z" fill="#A3AED0"/>
<path d="M40.2485 153.829C40.1719 153.827 40.0991 153.795 40.045 153.74C39.991 153.686 39.9597 153.613 39.9575 153.536C39.9553 153.459 39.9825 153.384 40.0334 153.326C40.0843 153.269 40.1552 153.233 40.2316 153.226C41.2223 153.171 42.2314 153.071 43.2208 152.931C43.2612 152.922 43.3028 152.922 43.3432 152.931C43.3835 152.939 43.4217 152.956 43.4554 152.98C43.4891 153.004 43.5176 153.034 43.5391 153.069C43.5606 153.105 43.5746 153.144 43.5803 153.185C43.5861 153.226 43.5833 153.268 43.5724 153.307C43.5614 153.347 43.5424 153.384 43.5165 153.417C43.4906 153.449 43.4584 153.475 43.4219 153.495C43.3854 153.514 43.3454 153.525 43.3043 153.528C42.298 153.67 41.2761 153.772 40.2655 153.829H40.2485ZM36.0124 153.816H35.9926C34.982 153.753 33.9601 153.645 32.9566 153.496C32.9163 153.491 32.8773 153.479 32.842 153.459C32.8066 153.439 32.7756 153.412 32.7509 153.38C32.7261 153.347 32.7081 153.31 32.698 153.271C32.6878 153.232 32.6856 153.191 32.6916 153.15C32.6976 153.11 32.7117 153.072 32.7329 153.037C32.7541 153.002 32.7821 152.972 32.8152 152.949C32.8482 152.925 32.8857 152.909 32.9253 152.9C32.965 152.891 33.0059 152.891 33.0458 152.898C34.0365 153.04 35.0358 153.151 36.0308 153.213C36.1072 153.22 36.1781 153.256 36.2289 153.314C36.2798 153.372 36.3068 153.447 36.3044 153.524C36.3021 153.6 36.2706 153.674 36.2163 153.728C36.162 153.782 36.0891 153.814 36.0124 153.816ZM47.4159 152.694C47.3421 152.695 47.2706 152.669 47.2149 152.62C47.1592 152.572 47.1233 152.504 47.114 152.431C47.1047 152.357 47.1227 152.283 47.1646 152.222C47.2064 152.161 47.2692 152.118 47.3409 152.1C48.3062 151.846 49.2714 151.548 50.2084 151.215C50.2463 151.198 50.2873 151.189 50.3288 151.189C50.3703 151.188 50.4114 151.197 50.4496 151.213C50.4877 151.229 50.5221 151.254 50.5505 151.284C50.579 151.314 50.6009 151.35 50.6148 151.389C50.6288 151.428 50.6346 151.47 50.6317 151.512C50.6289 151.553 50.6176 151.594 50.5984 151.631C50.5793 151.667 50.5527 151.7 50.5204 151.726C50.4881 151.752 50.4508 151.772 50.4108 151.783C49.4568 152.122 48.4746 152.424 47.4937 152.682C47.4679 152.69 47.4413 152.694 47.4145 152.694H47.4159ZM28.8535 152.624C28.8266 152.625 28.7999 152.621 28.7742 152.613C27.7962 152.346 26.8182 152.032 25.8657 151.683C25.8274 151.67 25.792 151.65 25.7617 151.623C25.7314 151.597 25.7067 151.564 25.6892 151.528C25.6716 151.491 25.6615 151.452 25.6595 151.411C25.6575 151.371 25.6636 151.331 25.6774 151.293C25.6912 151.255 25.7125 151.22 25.74 151.19C25.7675 151.161 25.8007 151.137 25.8375 151.12C25.8743 151.104 25.9141 151.095 25.9544 151.094C25.9948 151.093 26.0349 151.1 26.0723 151.115C27.0093 151.459 27.9717 151.767 28.9328 152.031C29.0026 152.051 29.063 152.095 29.1029 152.156C29.1427 152.217 29.1594 152.29 29.1497 152.362C29.1401 152.434 29.1048 152.5 29.0504 152.549C28.996 152.597 28.9261 152.624 28.8535 152.624ZM54.2082 150.146C54.152 150.146 54.097 150.13 54.0492 150.1C54.0015 150.07 53.963 150.028 53.9379 149.977C53.9206 149.941 53.9105 149.902 53.9083 149.863C53.906 149.823 53.9116 149.783 53.9248 149.745C53.9379 149.708 53.9584 149.673 53.9849 149.644C54.0114 149.614 54.0436 149.59 54.0794 149.573C54.9725 149.13 55.8571 148.642 56.7091 148.123C56.743 148.102 56.7809 148.087 56.8206 148.08C56.8602 148.073 56.9009 148.074 56.9402 148.083C56.9795 148.092 57.0165 148.109 57.0492 148.132C57.0818 148.156 57.1094 148.186 57.1304 148.221C57.1513 148.255 57.1651 148.294 57.1709 148.333C57.1768 148.373 57.1746 148.414 57.1645 148.453C57.1544 148.492 57.1366 148.529 57.1121 148.561C57.0876 148.593 57.0569 148.62 57.0219 148.64C56.1557 149.167 55.2556 149.663 54.3469 150.113C54.3038 150.135 54.2563 150.146 54.2082 150.146ZM22.0796 150.004C22.0304 150.005 21.9818 149.994 21.9381 149.971C21.0351 149.512 20.1391 149.008 19.2758 148.474C19.2405 148.454 19.2097 148.427 19.1851 148.395C19.1605 148.362 19.1426 148.325 19.1326 148.286C19.1225 148.247 19.1205 148.206 19.1267 148.165C19.1328 148.125 19.147 148.087 19.1683 148.052C19.1896 148.018 19.2177 147.988 19.2508 147.964C19.284 147.941 19.3215 147.924 19.3611 147.916C19.4007 147.907 19.4417 147.907 19.4815 147.914C19.5213 147.922 19.5592 147.938 19.5928 147.96C20.442 148.485 21.3224 148.981 22.2112 149.434C22.2698 149.466 22.3162 149.516 22.343 149.578C22.3698 149.639 22.3756 149.707 22.3594 149.772C22.3432 149.837 22.306 149.895 22.2535 149.936C22.2011 149.978 22.1364 150.001 22.0697 150.001L22.0796 150.004ZM60.3452 146.27C60.2827 146.27 60.2219 146.25 60.1712 146.213C60.1204 146.177 60.0822 146.125 60.0619 146.066C60.0415 146.007 60.04 145.943 60.0576 145.883C60.0751 145.823 60.1108 145.769 60.1598 145.73C60.9453 145.115 61.7167 144.453 62.4442 143.777C62.5029 143.724 62.5803 143.696 62.6595 143.7C62.7387 143.703 62.8133 143.738 62.8673 143.796C62.9212 143.854 62.9502 143.931 62.9478 144.011C62.9454 144.09 62.912 144.165 62.8546 144.22C62.1116 144.912 61.3289 145.58 60.5306 146.207C60.4786 146.249 60.4143 146.271 60.348 146.271L60.3452 146.27ZM15.9723 146.078C15.9041 146.078 15.8378 146.055 15.7841 146.013C14.9901 145.38 14.213 144.707 13.4756 144.01C13.4439 143.984 13.418 143.951 13.3993 143.915C13.3806 143.878 13.3697 143.838 13.3671 143.796C13.3645 143.755 13.3704 143.714 13.3843 143.675C13.3983 143.636 13.42 143.601 13.4482 143.571C13.4763 143.54 13.5104 143.516 13.5481 143.5C13.5859 143.484 13.6266 143.475 13.6678 143.475C13.7089 143.475 13.7497 143.484 13.7875 143.5C13.8253 143.516 13.8593 143.54 13.8875 143.57C14.6136 144.256 15.3779 144.917 16.1521 145.539C16.2011 145.578 16.2369 145.631 16.2544 145.691C16.2719 145.752 16.2703 145.816 16.2497 145.875C16.2292 145.934 16.1908 145.986 16.1398 146.022C16.0888 146.059 16.0278 146.078 15.9653 146.078H15.9723ZM65.5778 141.233C65.5205 141.232 65.4646 141.215 65.4165 141.184C65.3684 141.153 65.3301 141.108 65.3061 141.056C65.2821 141.004 65.2734 140.946 65.2809 140.889C65.2884 140.832 65.3118 140.779 65.3485 140.734C65.9953 139.974 66.6223 139.173 67.1969 138.361C67.2447 138.299 67.3145 138.259 67.3917 138.247C67.4689 138.236 67.5474 138.255 67.6108 138.301C67.6742 138.346 67.7175 138.415 67.7317 138.492C67.7458 138.569 67.7297 138.648 67.6866 138.713C67.0964 139.539 66.4652 140.351 65.8085 141.126C65.7806 141.16 65.7458 141.187 65.7064 141.205C65.6671 141.224 65.6241 141.234 65.5806 141.234L65.5778 141.233ZM10.7737 141.006C10.7296 141.005 10.6859 140.996 10.6459 140.977C10.6058 140.958 10.5702 140.931 10.5416 140.898C9.89054 140.117 9.26779 139.301 8.68183 138.471C8.65697 138.438 8.63889 138.401 8.62868 138.362C8.61847 138.322 8.61635 138.281 8.62243 138.241C8.62852 138.2 8.64269 138.162 8.66409 138.127C8.6855 138.092 8.71369 138.062 8.74697 138.039C8.78024 138.015 8.81792 137.999 8.85773 137.99C8.89754 137.982 8.93865 137.981 8.97859 137.989C9.01852 137.997 9.05646 138.013 9.09011 138.036C9.12376 138.059 9.15242 138.088 9.17437 138.123C9.74052 138.939 10.3633 139.742 11.0044 140.509C11.0408 140.553 11.0639 140.607 11.0711 140.664C11.0783 140.72 11.0693 140.778 11.0452 140.83C11.021 140.882 10.9827 140.926 10.9347 140.957C10.8867 140.988 10.8309 141.005 10.7737 141.006ZM69.6993 135.244C69.6469 135.244 69.5956 135.23 69.5502 135.204C69.5048 135.178 69.4669 135.141 69.4402 135.095C69.4136 135.05 69.399 134.999 69.398 134.946C69.3971 134.894 69.4097 134.842 69.4346 134.796C69.9158 133.92 70.3659 133.013 70.7707 132.099C70.7858 132.062 70.8084 132.027 70.837 131.999C70.8656 131.97 70.8997 131.947 70.9372 131.932C70.9747 131.917 71.0149 131.909 71.0554 131.91C71.0959 131.911 71.1358 131.919 71.1728 131.936C71.2098 131.952 71.2431 131.976 71.2707 132.006C71.2984 132.036 71.3197 132.071 71.3336 132.109C71.3474 132.147 71.3535 132.187 71.3514 132.228C71.3493 132.269 71.339 132.308 71.3213 132.345C70.9094 133.273 70.4523 134.19 69.9625 135.085C69.9376 135.133 69.9002 135.173 69.8543 135.202C69.8085 135.23 69.7559 135.245 69.7021 135.246L69.6993 135.244ZM6.70316 134.986C6.64883 134.986 6.59551 134.971 6.54889 134.943C6.50228 134.915 6.46412 134.875 6.43849 134.827C5.95727 133.932 5.5086 133.005 5.10522 132.072C5.0735 131.998 5.07238 131.915 5.10211 131.84C5.13184 131.765 5.18998 131.705 5.26374 131.673C5.3375 131.642 5.42084 131.64 5.49543 131.67C5.57002 131.7 5.62974 131.758 5.66146 131.832C6.05776 132.749 6.49793 133.66 6.97066 134.54C6.98954 134.575 7.00136 134.614 7.00546 134.653C7.00955 134.692 7.00584 134.732 6.99452 134.77C6.98321 134.808 6.96453 134.844 6.93955 134.874C6.91456 134.905 6.88377 134.93 6.84894 134.949C6.8044 134.974 6.75414 134.987 6.70316 134.986ZM72.5427 128.549C72.5124 128.55 72.4823 128.545 72.4536 128.535C72.3775 128.511 72.3139 128.458 72.2768 128.387C72.2396 128.317 72.2319 128.234 72.2554 128.158C72.5498 127.202 72.8088 126.223 73.0225 125.247C73.0396 125.169 73.0869 125.1 73.1541 125.057C73.2213 125.014 73.3027 125 73.3806 125.017C73.4585 125.034 73.5264 125.081 73.5694 125.149C73.6124 125.216 73.627 125.298 73.6099 125.376C73.3934 126.369 73.1301 127.363 72.8301 128.337C72.811 128.398 72.7729 128.452 72.7212 128.49C72.6695 128.529 72.607 128.549 72.5427 128.549ZM3.93048 128.266C3.86658 128.264 3.80473 128.243 3.75385 128.204C3.70297 128.165 3.66569 128.111 3.6474 128.05C3.36433 127.079 3.10532 126.081 2.89727 125.083C2.88605 125.044 2.88314 125.002 2.88871 124.961C2.89428 124.92 2.90821 124.88 2.92963 124.845C2.95106 124.809 2.97952 124.779 3.01325 124.755C3.04699 124.731 3.08527 124.714 3.12572 124.705C3.16617 124.697 3.20794 124.697 3.24841 124.705C3.28889 124.714 3.32721 124.73 3.361 124.754C3.39479 124.778 3.42333 124.809 3.44484 124.844C3.46636 124.879 3.48038 124.919 3.48605 124.96C3.69128 125.941 3.94038 126.921 4.22487 127.877C4.23639 127.915 4.24028 127.955 4.23633 127.994C4.23237 128.034 4.22065 128.072 4.20183 128.107C4.18301 128.142 4.15748 128.173 4.12669 128.198C4.09591 128.223 4.06049 128.242 4.02247 128.253C3.99249 128.261 3.96147 128.264 3.93048 128.263V128.266ZM73.9779 121.417H73.9482C73.9088 121.414 73.8706 121.402 73.8357 121.383C73.8008 121.365 73.7699 121.34 73.7448 121.309C73.7197 121.278 73.7008 121.243 73.6893 121.205C73.6779 121.167 73.674 121.127 73.6778 121.088C73.7741 120.094 73.8279 119.082 73.8406 118.082C73.8416 118.001 73.8744 117.924 73.932 117.868C73.9896 117.811 74.0672 117.78 74.1478 117.781C74.2283 117.782 74.3051 117.815 74.3614 117.873C74.4177 117.93 74.4487 118.008 74.4478 118.089C74.4365 119.107 74.3799 120.134 74.2822 121.146C74.2741 121.221 74.2383 121.29 74.182 121.34C74.1257 121.389 74.0529 121.416 73.9779 121.414V121.417ZM2.55758 121.118C2.48377 121.116 2.41317 121.087 2.35916 121.037C2.30516 120.986 2.27151 120.918 2.2646 120.844C2.17402 119.829 2.12307 118.8 2.12307 117.785C2.12221 117.708 2.15116 117.633 2.20388 117.576C2.2566 117.52 2.32905 117.486 2.40614 117.481C2.4856 117.481 2.56186 117.513 2.61831 117.569C2.67477 117.625 2.70686 117.701 2.70761 117.781C2.70761 118.774 2.76139 119.792 2.84914 120.789C2.85284 120.828 2.84869 120.868 2.83693 120.906C2.82518 120.944 2.80605 120.979 2.78066 121.009C2.75526 121.04 2.7241 121.065 2.68897 121.083C2.65385 121.102 2.61544 121.113 2.57598 121.116L2.55758 121.118ZM73.9397 114.139C73.8656 114.139 73.7941 114.111 73.739 114.061C73.6839 114.012 73.6491 113.943 73.6411 113.869C73.5349 112.876 73.3863 111.882 73.198 110.889V110.85C73.1905 110.811 73.1907 110.771 73.1986 110.733C73.2064 110.694 73.2219 110.657 73.2439 110.624C73.266 110.591 73.2943 110.563 73.3273 110.541C73.3602 110.52 73.3971 110.504 73.4358 110.497C73.4746 110.489 73.5144 110.49 73.5531 110.497C73.5918 110.505 73.6286 110.521 73.6613 110.543C73.694 110.565 73.7221 110.593 73.7439 110.626C73.7656 110.659 73.7807 110.696 73.7883 110.735L73.7967 110.775C73.9878 111.769 74.1393 112.795 74.2468 113.803C74.2512 113.842 74.2477 113.882 74.2365 113.92C74.2254 113.958 74.2069 113.994 74.1821 114.025C74.1572 114.056 74.1265 114.082 74.0917 114.101C74.0569 114.12 74.0187 114.132 73.9793 114.136L73.9397 114.139ZM2.64109 113.839H2.6057C2.52632 113.83 2.45386 113.79 2.40423 113.727C2.3546 113.664 2.33187 113.584 2.34103 113.504C2.45567 112.495 2.61561 111.478 2.81517 110.48C2.83447 110.405 2.88166 110.34 2.94703 110.299C3.0124 110.258 3.09098 110.244 3.16659 110.259C3.2422 110.274 3.3091 110.318 3.35352 110.381C3.39794 110.445 3.4165 110.523 3.40538 110.599C3.20864 111.58 3.05295 112.586 2.93973 113.58C2.92922 113.652 2.89329 113.717 2.83849 113.765C2.78368 113.813 2.71363 113.839 2.64109 113.839ZM72.4408 106.98C72.3775 106.979 72.3162 106.958 72.2654 106.92C72.2146 106.882 72.177 106.829 72.1578 106.768C71.8563 105.814 71.5095 104.864 71.1288 103.941C71.1106 103.904 71.1002 103.863 71.0982 103.822C71.0963 103.781 71.1028 103.739 71.1174 103.701C71.132 103.662 71.1543 103.627 71.1831 103.597C71.2118 103.567 71.2463 103.544 71.2845 103.528C71.3226 103.512 71.3636 103.505 71.4048 103.505C71.4461 103.506 71.4867 103.515 71.5243 103.533C71.5618 103.55 71.5955 103.574 71.6231 103.605C71.6508 103.636 71.6718 103.672 71.685 103.711C72.0728 104.649 72.4253 105.616 72.7324 106.585C72.7445 106.623 72.7491 106.663 72.7458 106.702C72.7425 106.742 72.7315 106.781 72.7134 106.816C72.6952 106.851 72.6703 106.883 72.6401 106.908C72.6098 106.934 72.5748 106.953 72.5371 106.966C72.506 106.976 72.4735 106.98 72.4408 106.98ZM4.1909 106.734C4.15922 106.734 4.1277 106.73 4.09749 106.72C4.02167 106.695 3.95889 106.64 3.92284 106.569C3.88678 106.497 3.88037 106.414 3.905 106.338C4.22204 105.373 4.58296 104.409 4.97926 103.473C4.99365 103.435 5.01555 103.4 5.04363 103.371C5.07171 103.341 5.1054 103.318 5.14268 103.302C5.17997 103.286 5.22008 103.278 5.26062 103.278C5.30117 103.278 5.34131 103.286 5.37864 103.302C5.41597 103.317 5.44973 103.341 5.4779 103.37C5.50607 103.399 5.52807 103.434 5.54258 103.472C5.55709 103.51 5.56382 103.55 5.56236 103.591C5.56089 103.631 5.55128 103.671 5.53408 103.708C5.14344 104.629 4.78818 105.577 4.47822 106.527C4.45823 106.588 4.41968 106.64 4.36807 106.677C4.31647 106.715 4.25446 106.734 4.1909 106.734ZM69.5521 100.31C69.4986 100.31 69.4461 100.296 69.4001 100.269C69.354 100.242 69.3161 100.203 69.2902 100.156C68.8019 99.2856 68.2712 98.424 67.7107 97.6008C67.6705 97.5345 67.6572 97.4553 67.6737 97.3795C67.6901 97.3037 67.7349 97.2371 67.7989 97.1935C67.8629 97.15 67.9412 97.1327 68.0175 97.1454C68.0938 97.1581 68.1623 97.1997 68.2089 97.2616C68.7751 98.1032 69.3186 98.979 69.8153 99.8646C69.841 99.9107 69.8542 99.9626 69.8537 100.015C69.8532 100.068 69.8389 100.12 69.8123 100.165C69.7857 100.211 69.7476 100.248 69.702 100.275C69.6564 100.301 69.6047 100.315 69.5521 100.315V100.31ZM7.13484 100.086C7.08226 100.086 7.03058 100.072 6.98482 100.046C6.91569 100.006 6.86512 99.9408 6.84416 99.8637C6.82321 99.7865 6.83358 99.7042 6.873 99.6347C7.37687 98.7519 7.9232 97.8804 8.49783 97.043C8.51961 97.0088 8.54801 96.9794 8.58135 96.9565C8.61469 96.9336 8.65228 96.9176 8.69189 96.9096C8.73151 96.9015 8.77233 96.9016 8.81194 96.9096C8.85155 96.9177 8.88913 96.9337 8.92245 96.9566C8.95577 96.9796 8.98415 97.009 9.0059 97.0432C9.02765 97.0773 9.04233 97.1155 9.04907 97.1555C9.0558 97.1955 9.05445 97.2364 9.0451 97.2758C9.03574 97.3153 9.01858 97.3524 8.99462 97.3851C8.42848 98.2083 7.89064 99.067 7.39669 99.9399C7.36952 99.9834 7.33174 100.019 7.28692 100.044C7.2421 100.069 7.19171 100.082 7.14051 100.082L7.13484 100.086ZM65.3711 94.3647C65.328 94.3647 65.2855 94.3553 65.2464 94.3372C65.2073 94.319 65.1726 94.2926 65.1447 94.2597C64.4908 93.506 63.7972 92.7694 63.0811 92.0725C63.0329 92.0145 63.008 91.9406 63.0114 91.8652C63.0148 91.7898 63.0462 91.7184 63.0994 91.6651C63.1526 91.6117 63.2238 91.5803 63.299 91.5768C63.3742 91.5734 63.4479 91.5984 63.5057 91.6467C64.2332 92.3563 64.938 93.1043 65.6032 93.8708C65.6407 93.9148 65.6649 93.9685 65.6729 94.0258C65.6809 94.0831 65.6725 94.1415 65.6485 94.1941C65.6246 94.2467 65.5862 94.2914 65.5378 94.3229C65.4894 94.3544 65.433 94.3713 65.3754 94.3718L65.3711 94.3647ZM11.3512 94.166C11.2934 94.1655 11.2369 94.1484 11.1885 94.1168C11.14 94.0851 11.1016 94.0402 11.0778 93.9874C11.054 93.9345 11.0457 93.876 11.0541 93.8186C11.0624 93.7612 11.0869 93.7074 11.1247 93.6636C11.7942 92.8999 12.5047 92.1562 13.235 91.4522C13.2635 91.4243 13.2971 91.4022 13.3341 91.3873C13.371 91.3724 13.4105 91.3649 13.4503 91.3653C13.4902 91.3657 13.5295 91.3739 13.5662 91.3896C13.6028 91.4052 13.636 91.428 13.6639 91.4565C13.6918 91.485 13.7138 91.5188 13.7286 91.5558C13.7435 91.5928 13.751 91.6325 13.7506 91.6724C13.7502 91.7123 13.742 91.7518 13.7263 91.7885C13.7107 91.8253 13.6881 91.8586 13.6596 91.8865C12.9406 92.5792 12.2443 93.3059 11.5847 94.0624C11.556 94.0942 11.5208 94.1196 11.4815 94.1367C11.4422 94.1538 11.3997 94.1624 11.3569 94.1617L11.3512 94.166ZM60.0848 89.3814C60.0187 89.3815 59.9544 89.3596 59.9022 89.319C59.111 88.7115 58.283 88.1296 57.4437 87.5902C57.3806 87.5452 57.3372 87.4775 57.3225 87.4012C57.3079 87.3249 57.323 87.2459 57.3649 87.1805C57.4068 87.1152 57.4722 87.0685 57.5474 87.0502C57.6227 87.0318 57.7021 87.0433 57.7692 87.0821C58.6185 87.63 59.4677 88.2176 60.2688 88.8392C60.3188 88.8777 60.3555 88.9309 60.3738 88.9914C60.3921 89.0519 60.391 89.1167 60.3707 89.1765C60.3504 89.2363 60.3119 89.2883 60.2606 89.3251C60.2093 89.3618 60.1478 89.3815 60.0848 89.3814ZM16.6659 89.2154C16.6026 89.2156 16.5409 89.1958 16.4894 89.1588C16.438 89.1219 16.3994 89.0697 16.3792 89.0095C16.359 88.9494 16.3582 88.8844 16.3769 88.8238C16.3956 88.7632 16.4328 88.71 16.4833 88.6717C17.2929 88.0586 18.1364 87.4724 18.9941 86.9302C19.0619 86.8875 19.1438 86.8735 19.2218 86.8913C19.2999 86.9092 19.3676 86.9574 19.4102 87.0253C19.4528 87.0933 19.4668 87.1754 19.449 87.2537C19.4312 87.3319 19.3832 87.3999 19.3154 87.4426C18.4733 87.9749 17.6425 88.5511 16.847 89.1529C16.7962 89.1906 16.7347 89.211 16.6715 89.2111L16.6659 89.2154ZM53.9096 85.5606C53.8645 85.5605 53.82 85.5503 53.7794 85.5308C52.882 85.0936 51.955 84.6905 51.0251 84.3314C50.95 84.3026 50.8894 84.2451 50.8566 84.1715C50.8238 84.0979 50.8215 84.0143 50.8503 83.939C50.879 83.8637 50.9363 83.8029 51.0097 83.77C51.0831 83.7372 51.1665 83.7349 51.2416 83.7637C52.1871 84.1299 53.1297 84.5401 54.0412 84.9843C54.0992 85.0159 54.1452 85.0657 54.1723 85.126C54.1993 85.1864 54.2059 85.254 54.1909 85.3184C54.176 85.3829 54.1404 85.4407 54.0896 85.4828C54.0387 85.525 53.9755 85.5494 53.9096 85.552V85.5606ZM22.8736 85.4442C22.8053 85.4441 22.7391 85.4208 22.6857 85.378C22.6324 85.3353 22.5951 85.2756 22.5799 85.2088C22.5648 85.142 22.5728 85.0721 22.6024 85.0104C22.6321 84.9487 22.6818 84.899 22.7434 84.8693C23.6591 84.4336 24.6046 84.0319 25.5543 83.6743C25.5915 83.6603 25.631 83.6538 25.6707 83.6551C25.7104 83.6565 25.7494 83.6657 25.7856 83.6821C25.8217 83.6986 25.8542 83.7221 25.8814 83.7512C25.9085 83.7802 25.9296 83.8144 25.9435 83.8517C25.9575 83.889 25.9639 83.9286 25.9626 83.9684C25.9613 84.0082 25.9521 84.0473 25.9357 84.0836C25.9192 84.1198 25.8959 84.1525 25.8668 84.1797C25.8378 84.2068 25.8038 84.228 25.7666 84.242C24.8325 84.5926 23.9026 84.9871 23.0024 85.4158C22.9621 85.4347 22.9181 85.4444 22.8736 85.4442ZM47.1017 83.0639C47.0764 83.0634 47.0512 83.0601 47.0267 83.054C46.06 82.807 45.0721 82.5998 44.0884 82.4366C44.0116 82.4213 43.9437 82.3766 43.8992 82.312C43.8547 82.2473 43.837 82.1679 43.8498 82.0904C43.8627 82.0129 43.9051 81.9435 43.9682 81.8968C44.0312 81.8502 44.1098 81.83 44.1875 81.8405C45.1867 82.0065 46.193 82.218 47.1753 82.4678C47.2472 82.4853 47.3102 82.5287 47.3523 82.5897C47.3943 82.6507 47.4126 82.7252 47.4035 82.7988C47.3944 82.8724 47.3586 82.9401 47.303 82.989C47.2473 83.0379 47.1757 83.0646 47.1017 83.0639ZM29.7084 83.0072C29.6356 83.0058 29.5658 82.9781 29.5118 82.9291C29.4578 82.8801 29.4233 82.8132 29.4147 82.7407C29.4061 82.6683 29.4239 82.5951 29.4649 82.5348C29.5058 82.4744 29.5672 82.431 29.6376 82.4125C30.2349 82.2705 30.8477 82.1286 31.4563 82.0136C31.8441 81.9384 32.239 81.8717 32.6297 81.8078C32.7063 81.8 32.7829 81.8219 32.844 81.869C32.905 81.916 32.9457 81.9847 32.9579 82.061C32.97 82.1372 32.9526 82.2152 32.9092 82.279C32.8658 82.3428 32.7997 82.3875 32.7245 82.404C32.3395 82.465 31.9517 82.5331 31.5696 82.6069C30.9709 82.7219 30.3693 82.8539 29.7806 82.9987C29.7566 83.0019 29.7324 83.0024 29.7084 83.0001V83.0072ZM39.9216 81.9966H39.9131C39.3852 81.9739 38.8502 81.9611 38.3236 81.9611C37.8552 81.9611 37.3796 81.9711 36.9083 81.9895C36.8675 81.9934 36.8263 81.989 36.7873 81.9764C36.7482 81.9638 36.7122 81.9434 36.6813 81.9163C36.6504 81.8893 36.6253 81.8562 36.6076 81.8191C36.5899 81.7821 36.5799 81.7417 36.5783 81.7007C36.5766 81.6596 36.5834 81.6186 36.5981 81.5802C36.6128 81.5418 36.6351 81.5068 36.6638 81.4774C36.6924 81.448 36.7267 81.4247 36.7646 81.4091C36.8025 81.3934 36.8432 81.3856 36.8842 81.3863C37.3612 81.3664 37.8438 81.3579 38.3208 81.3579C38.8572 81.3579 39.4007 81.3693 39.9372 81.3934C40.0171 81.3951 40.0931 81.4286 40.1485 81.4865C40.2038 81.5443 40.2339 81.6219 40.2323 81.7021C40.2306 81.7823 40.1972 81.8585 40.1395 81.914C40.0817 81.9695 40.0044 81.9997 39.9244 81.998L39.9216 81.9966Z" fill="#A3AED0"/>
<path d="M148.522 126.391L148.001 126.422C147.923 126.424 147.847 126.396 147.789 126.343C147.731 126.29 147.696 126.216 147.691 126.138C147.687 126.06 147.713 125.982 147.764 125.923C147.814 125.863 147.887 125.826 147.965 125.819C148.955 125.763 149.946 125.677 150.937 125.58C151.016 125.572 151.096 125.596 151.158 125.646C151.22 125.697 151.26 125.77 151.268 125.85C151.276 125.93 151.253 126.009 151.202 126.072C151.152 126.134 151.079 126.174 150.999 126.182C150.17 126.267 149.343 126.337 148.522 126.391ZM143.825 126.52H143.801C142.81 126.51 141.795 126.476 140.802 126.418C140.762 126.415 140.723 126.405 140.688 126.388C140.652 126.371 140.62 126.347 140.594 126.317C140.568 126.288 140.548 126.253 140.535 126.216C140.522 126.179 140.516 126.139 140.518 126.1C140.524 126.02 140.56 125.945 140.619 125.892C140.679 125.839 140.757 125.811 140.837 125.816C141.828 125.874 142.818 125.908 143.809 125.918C143.886 125.921 143.959 125.952 144.013 126.007C144.067 126.061 144.098 126.135 144.1 126.212C144.102 126.288 144.075 126.363 144.024 126.421C143.973 126.478 143.903 126.514 143.826 126.521L143.825 126.52ZM155.123 125.611C155.047 125.615 154.973 125.589 154.915 125.539C154.857 125.49 154.82 125.42 154.811 125.344C154.803 125.268 154.823 125.192 154.868 125.13C154.913 125.069 154.979 125.027 155.054 125.012C156.028 124.845 157.01 124.653 157.973 124.445C158.05 124.43 158.13 124.446 158.195 124.489C158.261 124.533 158.307 124.6 158.323 124.677C158.34 124.754 158.326 124.834 158.285 124.901C158.243 124.968 158.178 125.016 158.101 125.035C157.13 125.248 156.14 125.442 155.155 125.61C155.144 125.611 155.134 125.612 155.123 125.611ZM136.671 126.037C136.653 126.039 136.634 126.039 136.615 126.037C135.624 125.912 134.633 125.763 133.643 125.591C133.564 125.578 133.494 125.533 133.448 125.468C133.402 125.402 133.383 125.321 133.397 125.242C133.411 125.163 133.455 125.092 133.521 125.046C133.586 125 133.667 124.982 133.746 124.995C134.717 125.166 135.706 125.315 136.686 125.438C136.759 125.449 136.826 125.486 136.873 125.543C136.921 125.6 136.946 125.672 136.944 125.746C136.942 125.82 136.913 125.891 136.862 125.945C136.811 125.999 136.742 126.032 136.669 126.039L136.671 126.037ZM162.108 124.006C162.034 124.013 161.959 123.991 161.9 123.945C161.84 123.899 161.8 123.832 161.787 123.758C161.774 123.684 161.789 123.608 161.83 123.544C161.87 123.481 161.933 123.435 162.005 123.416C162.952 123.139 163.906 122.837 164.836 122.516C164.874 122.498 164.916 122.488 164.958 122.487C165 122.486 165.042 122.494 165.081 122.51C165.121 122.526 165.156 122.551 165.185 122.582C165.214 122.613 165.236 122.649 165.25 122.69C165.264 122.73 165.269 122.772 165.265 122.815C165.262 122.857 165.249 122.898 165.229 122.935C165.208 122.972 165.18 123.005 165.146 123.03C165.113 123.056 165.074 123.074 165.032 123.084C164.09 123.407 163.127 123.712 162.171 123.99C162.151 123.997 162.131 124.002 162.111 124.005L162.108 124.006ZM129.62 124.731C129.59 124.734 129.559 124.731 129.53 124.723C128.561 124.486 127.585 124.222 126.627 123.937C126.587 123.927 126.55 123.909 126.518 123.884C126.485 123.86 126.458 123.829 126.438 123.793C126.417 123.758 126.404 123.719 126.4 123.678C126.395 123.637 126.399 123.596 126.41 123.557C126.422 123.518 126.441 123.482 126.467 123.45C126.493 123.419 126.525 123.393 126.562 123.374C126.598 123.356 126.637 123.344 126.678 123.342C126.719 123.339 126.759 123.344 126.798 123.357C127.746 123.641 128.713 123.901 129.673 124.137C129.742 124.154 129.803 124.196 129.845 124.255C129.886 124.313 129.905 124.385 129.899 124.456C129.893 124.528 129.861 124.595 129.81 124.645C129.759 124.696 129.692 124.726 129.62 124.731ZM168.867 121.609C168.794 121.616 168.722 121.597 168.663 121.556C168.603 121.514 168.561 121.452 168.544 121.381C168.527 121.311 168.536 121.236 168.569 121.171C168.602 121.107 168.658 121.056 168.725 121.03C169.635 120.646 170.548 120.235 171.438 119.809C171.474 119.789 171.514 119.777 171.555 119.774C171.595 119.77 171.637 119.774 171.676 119.787C171.715 119.8 171.75 119.82 171.781 119.847C171.812 119.874 171.837 119.907 171.855 119.945C171.872 119.982 171.882 120.022 171.884 120.063C171.885 120.104 171.879 120.145 171.864 120.183C171.849 120.222 171.827 120.257 171.798 120.286C171.77 120.315 171.735 120.338 171.697 120.354C170.799 120.78 169.877 121.199 168.959 121.586C168.929 121.598 168.898 121.606 168.867 121.609ZM122.76 122.622C122.718 122.625 122.675 122.619 122.635 122.604C121.701 122.256 120.761 121.881 119.843 121.49C119.769 121.458 119.71 121.398 119.679 121.323C119.649 121.249 119.649 121.165 119.681 121.09C119.712 121.016 119.772 120.957 119.846 120.926C119.921 120.896 120.005 120.896 120.079 120.928C120.989 121.316 121.919 121.688 122.845 122.032C122.909 122.056 122.964 122.102 122.999 122.161C123.034 122.22 123.047 122.29 123.038 122.358C123.028 122.427 122.995 122.49 122.944 122.537C122.894 122.584 122.829 122.612 122.76 122.617V122.622ZM175.299 118.454C175.23 118.459 175.161 118.441 175.104 118.402C175.047 118.362 175.005 118.304 174.986 118.238C174.966 118.171 174.97 118.1 174.997 118.036C175.023 117.972 175.071 117.919 175.132 117.886C175.99 117.402 176.848 116.892 177.68 116.366C177.748 116.325 177.829 116.313 177.905 116.331C177.982 116.35 178.048 116.398 178.09 116.465C178.132 116.532 178.146 116.613 178.129 116.69C178.112 116.767 178.066 116.835 178 116.878C177.151 117.408 176.29 117.924 175.424 118.412C175.386 118.435 175.343 118.449 175.299 118.454ZM116.187 119.741C116.134 119.744 116.08 119.733 116.033 119.708C115.142 119.257 114.252 118.777 113.386 118.289C113.349 118.271 113.317 118.245 113.291 118.214C113.264 118.182 113.245 118.146 113.233 118.107C113.221 118.067 113.217 118.026 113.222 117.985C113.226 117.945 113.239 117.905 113.259 117.87C113.279 117.834 113.306 117.803 113.339 117.778C113.372 117.753 113.409 117.735 113.449 117.725C113.488 117.715 113.529 117.714 113.57 117.72C113.61 117.727 113.649 117.742 113.683 117.764C114.542 118.254 115.424 118.728 116.304 119.183C116.362 119.214 116.408 119.263 116.435 119.322C116.463 119.381 116.47 119.447 116.457 119.511C116.444 119.575 116.411 119.633 116.362 119.676C116.313 119.719 116.252 119.746 116.187 119.751V119.741ZM181.326 114.583C181.275 114.586 181.224 114.576 181.178 114.554C181.132 114.532 181.092 114.499 181.061 114.458C181.038 114.426 181.02 114.389 181.011 114.35C181.002 114.311 181 114.271 181.006 114.231C181.013 114.191 181.027 114.153 181.048 114.119C181.069 114.085 181.097 114.056 181.129 114.032C181.928 113.452 182.722 112.846 183.492 112.228C183.522 112.201 183.558 112.18 183.597 112.167C183.635 112.154 183.677 112.149 183.717 112.153C183.758 112.156 183.798 112.168 183.834 112.187C183.87 112.207 183.902 112.233 183.927 112.265C183.953 112.297 183.972 112.334 183.983 112.374C183.994 112.413 183.996 112.455 183.991 112.495C183.985 112.536 183.971 112.575 183.95 112.61C183.929 112.645 183.901 112.676 183.868 112.7C183.091 113.323 182.288 113.936 181.483 114.521C181.438 114.556 181.383 114.577 181.326 114.583ZM109.992 116.13C109.926 116.134 109.861 116.117 109.807 116.08C108.974 115.53 108.145 114.945 107.34 114.363C107.305 114.341 107.275 114.312 107.252 114.278C107.228 114.243 107.212 114.205 107.205 114.164C107.197 114.123 107.198 114.081 107.207 114.041C107.216 114.001 107.233 113.963 107.258 113.929C107.282 113.896 107.313 113.868 107.349 113.847C107.384 113.826 107.424 113.812 107.465 113.807C107.506 113.803 107.547 113.806 107.587 113.818C107.627 113.83 107.663 113.85 107.695 113.876C108.492 114.458 109.314 115.032 110.139 115.579C110.192 115.614 110.232 115.664 110.254 115.723C110.277 115.782 110.281 115.846 110.265 115.907C110.249 115.968 110.215 116.022 110.167 116.063C110.119 116.103 110.06 116.128 109.998 116.133L109.992 116.13ZM186.878 110.044C186.816 110.049 186.754 110.033 186.701 110.001C186.647 109.968 186.605 109.919 186.581 109.862C186.556 109.804 186.551 109.74 186.564 109.679C186.578 109.618 186.61 109.562 186.656 109.52C187.384 108.852 188.104 108.158 188.799 107.457C188.857 107.408 188.931 107.383 189.006 107.387C189.081 107.39 189.152 107.422 189.205 107.475C189.259 107.528 189.29 107.6 189.293 107.675C189.297 107.751 189.272 107.824 189.224 107.882C188.516 108.592 187.794 109.292 187.06 109.966C187.009 110.013 186.943 110.04 186.874 110.044H186.878ZM104.239 111.844C104.161 111.848 104.085 111.824 104.025 111.774C103.262 111.133 102.502 110.466 101.77 109.787C101.739 109.761 101.712 109.729 101.694 109.692C101.675 109.656 101.664 109.616 101.661 109.575C101.658 109.534 101.664 109.492 101.677 109.454C101.691 109.415 101.712 109.379 101.74 109.349C101.768 109.319 101.801 109.294 101.839 109.278C101.876 109.261 101.917 109.252 101.958 109.251C101.999 109.251 102.039 109.259 102.077 109.274C102.115 109.29 102.149 109.313 102.178 109.343C102.904 110.013 103.655 110.674 104.411 111.309C104.457 111.347 104.491 111.399 104.508 111.457C104.524 111.515 104.523 111.577 104.505 111.634C104.486 111.691 104.451 111.742 104.403 111.779C104.356 111.816 104.299 111.838 104.239 111.842V111.844ZM191.876 104.906C191.837 104.909 191.798 104.904 191.76 104.891C191.723 104.879 191.689 104.859 191.66 104.832C191.629 104.806 191.605 104.775 191.587 104.739C191.569 104.704 191.559 104.665 191.556 104.626C191.553 104.586 191.558 104.546 191.571 104.509C191.584 104.471 191.604 104.436 191.63 104.406C192.277 103.66 192.915 102.888 193.526 102.111C193.55 102.079 193.581 102.051 193.615 102.03C193.65 102.01 193.689 101.996 193.729 101.991C193.769 101.985 193.81 101.988 193.849 101.999C193.888 102.01 193.925 102.028 193.956 102.053C193.988 102.078 194.014 102.11 194.034 102.145C194.053 102.181 194.065 102.22 194.069 102.261C194.073 102.301 194.069 102.342 194.057 102.38C194.045 102.419 194.025 102.455 193.999 102.486C193.382 103.27 192.738 104.047 192.084 104.802C192.03 104.861 191.956 104.897 191.876 104.9V104.906ZM99.0131 106.923C98.969 106.926 98.9248 106.919 98.8836 106.903C98.8425 106.887 98.8055 106.862 98.7753 106.829C98.0888 106.105 97.4109 105.356 96.7598 104.602C96.7312 104.573 96.7088 104.538 96.6941 104.499C96.6795 104.461 96.6728 104.42 96.6745 104.379C96.6761 104.338 96.6862 104.297 96.704 104.26C96.7218 104.223 96.7469 104.19 96.7779 104.163C96.8089 104.136 96.845 104.116 96.8841 104.103C96.9232 104.091 96.9645 104.086 97.0053 104.09C97.0462 104.094 97.0858 104.107 97.1217 104.127C97.1576 104.147 97.189 104.174 97.2141 104.206C97.8596 104.954 98.5319 105.697 99.2112 106.413C99.2505 106.455 99.2773 106.507 99.2882 106.563C99.2992 106.62 99.294 106.678 99.2732 106.731C99.2525 106.785 99.217 106.831 99.1709 106.865C99.1249 106.899 99.0701 106.919 99.0131 106.923ZM196.265 99.2188C196.198 99.2238 196.131 99.2053 196.075 99.1663C196.042 99.1438 196.013 99.1148 195.991 99.0811C195.969 99.0473 195.954 99.0095 195.947 98.9698C195.94 98.9302 195.94 98.8894 195.949 98.85C195.958 98.8106 195.974 98.7734 195.998 98.7405C196.564 97.9258 197.104 97.0855 197.625 96.2439C197.67 96.1805 197.736 96.1366 197.812 96.1212C197.888 96.1057 197.966 96.1199 198.032 96.1608C198.097 96.2018 198.144 96.2663 198.164 96.3411C198.183 96.416 198.173 96.4955 198.136 96.5632C197.613 97.4148 197.059 98.2664 196.494 99.0839C196.469 99.1226 196.435 99.1548 196.395 99.1782C196.356 99.2016 196.311 99.2155 196.265 99.2188ZM94.3792 101.446C94.3293 101.449 94.2794 101.44 94.234 101.419C94.1885 101.398 94.1489 101.366 94.1188 101.327C93.5201 100.53 92.9313 99.7099 92.3708 98.8852C92.3258 98.819 92.3088 98.7375 92.3237 98.6587C92.3385 98.5799 92.384 98.5103 92.4501 98.4651C92.5161 98.4199 92.5974 98.4029 92.6759 98.4179C92.7545 98.4328 92.824 98.4783 92.869 98.5446C93.4238 99.3607 94.0013 100.174 94.6 100.957C94.6242 100.989 94.6418 101.026 94.652 101.064C94.6621 101.103 94.6644 101.143 94.6589 101.183C94.6534 101.222 94.6401 101.261 94.6198 101.295C94.5994 101.329 94.5725 101.359 94.5405 101.383C94.4946 101.42 94.4382 101.442 94.3792 101.446ZM199.986 93.0716C199.933 93.075 199.879 93.064 199.832 93.0397C199.784 93.0155 199.744 92.9789 199.715 92.9337C199.686 92.8885 199.669 92.8365 199.667 92.7829C199.665 92.7292 199.678 92.6761 199.703 92.6288C200.167 91.7531 200.616 90.8561 201.038 89.9619C201.054 89.9249 201.077 89.8916 201.107 89.8639C201.136 89.8362 201.17 89.8147 201.208 89.8006C201.246 89.7864 201.286 89.7801 201.326 89.7818C201.367 89.7835 201.406 89.7932 201.442 89.8105C201.479 89.8277 201.511 89.8521 201.538 89.8822C201.565 89.9123 201.586 89.9475 201.599 89.9857C201.612 90.0239 201.617 90.0643 201.614 90.1046C201.612 90.1448 201.601 90.1842 201.583 90.2202C201.158 91.1229 200.704 92.0284 200.235 92.9169C200.211 92.9618 200.176 92.9997 200.133 93.027C200.09 93.0543 200.041 93.0702 199.99 93.0731L199.986 93.0716ZM90.4006 95.4845C90.345 95.4893 90.2891 95.4786 90.2391 95.4536C90.1892 95.4285 90.1471 95.3901 90.1176 95.3426C89.6137 94.4825 89.1268 93.5996 88.6597 92.7182C88.6411 92.6831 88.6296 92.6446 88.6259 92.605C88.6221 92.5654 88.6262 92.5255 88.6378 92.4875C88.6494 92.4494 88.6684 92.4141 88.6937 92.3834C88.7189 92.3528 88.75 92.3274 88.785 92.3087C88.82 92.2901 88.8584 92.2786 88.8979 92.2748C88.9373 92.271 88.9772 92.2751 89.0151 92.2868C89.053 92.2984 89.0883 92.3175 89.1188 92.3428C89.1494 92.3681 89.1747 92.3992 89.1933 92.4344C89.6519 93.3073 90.1374 94.1816 90.637 95.0332C90.6772 95.1023 90.6885 95.1845 90.6683 95.262C90.6482 95.3394 90.5982 95.4056 90.5294 95.4462C90.4894 95.4665 90.4454 95.4776 90.4006 95.4788V95.4845ZM202.987 86.5427C202.942 86.5459 202.898 86.5391 202.856 86.5228C202.782 86.4934 202.723 86.4356 202.691 86.3622C202.659 86.2887 202.657 86.2056 202.687 86.1311C203.049 85.2085 203.394 84.2647 203.708 83.3265C203.741 83.2601 203.796 83.2078 203.864 83.1795C203.932 83.1512 204.008 83.1487 204.077 83.1726C204.147 83.1965 204.205 83.2452 204.242 83.3093C204.278 83.3735 204.29 83.4487 204.275 83.5209C203.955 84.4676 203.607 85.42 203.241 86.3525C203.221 86.4048 203.186 86.4502 203.141 86.4836C203.096 86.5169 203.042 86.5369 202.987 86.5413V86.5427ZM87.1297 89.0975C87.0683 89.1018 87.007 89.0869 86.9543 89.0549C86.9016 89.0229 86.86 88.9753 86.8353 88.9187C86.432 88.006 86.0442 87.0735 85.6847 86.1382C85.6703 86.1009 85.6635 86.0612 85.6645 86.0212C85.6655 85.9813 85.6743 85.942 85.6905 85.9054C85.7231 85.8317 85.7837 85.774 85.8587 85.745C85.9338 85.716 86.0173 85.7182 86.0908 85.7509C86.1643 85.7836 86.2219 85.8443 86.2508 85.9196C86.6075 86.8436 86.9896 87.7647 87.3831 88.6745C87.3991 88.7108 87.4077 88.7498 87.4086 88.7895C87.4095 88.8291 87.4026 88.8685 87.3883 88.9054C87.3739 88.9423 87.3525 88.976 87.3251 89.0046C87.2977 89.0332 87.265 89.0561 87.2288 89.072C87.1974 89.0849 87.1637 89.0917 87.1297 89.0918V89.0975ZM205.227 79.7058C205.194 79.7074 205.161 79.704 205.13 79.6958C205.052 79.6752 204.987 79.6247 204.947 79.5556C204.907 79.4864 204.895 79.4042 204.916 79.3268C205.171 78.3673 205.404 77.3894 205.611 76.4214C205.619 76.3826 205.635 76.3457 205.657 76.313C205.68 76.2802 205.708 76.2523 205.742 76.2307C205.775 76.209 205.812 76.1942 205.851 76.187C205.89 76.1798 205.93 76.1803 205.969 76.1886C206.008 76.1969 206.044 76.2128 206.077 76.2353C206.11 76.2579 206.137 76.2866 206.159 76.32C206.181 76.3533 206.195 76.3906 206.203 76.4297C206.21 76.4688 206.209 76.5089 206.201 76.5477C205.991 77.5257 205.755 78.5135 205.493 79.4815C205.477 79.5417 205.443 79.5956 205.395 79.6357C205.348 79.6758 205.289 79.7003 205.227 79.7058ZM84.6104 82.3656C84.5432 82.3696 84.4766 82.351 84.4212 82.3127C84.3658 82.2743 84.3248 82.2185 84.3047 82.1541C84.0075 81.2003 83.73 80.2267 83.4795 79.2601C83.4678 79.2211 83.464 79.1802 83.4684 79.1397C83.4728 79.0993 83.4853 79.0601 83.5052 79.0246C83.5251 78.9891 83.5519 78.958 83.584 78.9332C83.6162 78.9083 83.653 78.8902 83.6923 78.88C83.7316 78.8698 83.7725 78.8676 83.8127 78.8736C83.8528 78.8796 83.8914 78.8937 83.9259 78.915C83.9605 78.9363 83.9905 78.9644 84.014 78.9976C84.0374 79.0308 84.054 79.0684 84.0626 79.1082C84.3118 80.0663 84.5863 81.03 84.8793 81.9739C84.9028 82.0505 84.8952 82.1333 84.8581 82.2043C84.821 82.2753 84.7574 82.3286 84.6812 82.3528C84.6573 82.3602 84.6325 82.3645 84.6076 82.3656H84.6104ZM206.667 72.6588C206.645 72.6609 206.624 72.6609 206.603 72.6588C206.524 72.6472 206.453 72.6046 206.405 72.5405C206.357 72.4764 206.337 72.3959 206.348 72.3167C206.49 71.3373 206.61 70.3424 206.706 69.3574C206.714 69.2778 206.753 69.2045 206.814 69.1536C206.876 69.1028 206.955 69.0786 207.035 69.0863C207.114 69.094 207.187 69.133 207.238 69.1948C207.288 69.2565 207.313 69.336 207.305 69.4156C207.209 70.4091 207.088 71.4154 206.944 72.4033C206.934 72.4717 206.9 72.5344 206.849 72.5809C206.798 72.6275 206.733 72.655 206.664 72.6588H206.667ZM82.8695 75.3938C82.7964 75.3986 82.7242 75.3764 82.6663 75.3314C82.6084 75.2864 82.569 75.2218 82.5553 75.1497C82.3685 74.1689 82.2029 73.1626 82.0627 72.179C82.0614 72.1046 82.0874 72.0322 82.136 71.9758C82.1845 71.9195 82.2521 71.8831 82.3257 71.8736C82.3994 71.8641 82.4739 71.8822 82.5351 71.9244C82.5963 71.9666 82.6398 72.03 82.6572 72.1024C82.7987 73.0831 82.9601 74.0724 83.1441 75.0432C83.159 75.1219 83.1422 75.2033 83.0974 75.2696C83.0525 75.3358 82.9833 75.3815 82.9049 75.3967L82.8695 75.3938ZM207.279 65.4996H207.251C207.212 65.4985 207.173 65.4896 207.137 65.4734C207.1 65.4571 207.068 65.4339 207.041 65.405C207.014 65.3761 206.993 65.3421 206.979 65.305C206.965 65.2679 206.958 65.2284 206.96 65.1888C206.988 64.1953 206.994 63.2017 206.977 62.2082C206.973 62.167 206.978 62.1254 206.991 62.0862C207.004 62.047 207.025 62.0109 207.053 61.9802C207.081 61.9494 207.114 61.9247 207.152 61.9075C207.189 61.8904 207.23 61.8811 207.271 61.8803C207.312 61.8796 207.353 61.8873 207.392 61.903C207.43 61.9188 207.464 61.9422 207.493 61.9719C207.522 62.0015 207.544 62.0368 207.559 62.0755C207.573 62.1142 207.58 62.1555 207.578 62.1968C207.596 63.1904 207.591 64.2094 207.561 65.2072C207.559 65.2816 207.53 65.3525 207.479 65.4065C207.428 65.4605 207.359 65.4937 207.285 65.4996H207.279ZM81.9283 68.2702C81.8886 68.2729 81.8489 68.2676 81.8112 68.2548C81.7736 68.2419 81.7389 68.2217 81.7092 68.1953C81.6794 68.1689 81.6552 68.1368 81.6379 68.1009C81.6206 68.0651 81.6106 68.0261 81.6084 67.9863C81.59 67.7521 81.573 67.5165 81.5589 67.2766C81.5093 66.5144 81.4725 65.7395 81.4513 64.9773C81.4489 64.8971 81.4783 64.8193 81.5331 64.7608C81.5879 64.7024 81.6636 64.6682 81.7436 64.6658C81.8235 64.6633 81.9012 64.6928 81.9595 64.7478C82.0177 64.8027 82.0518 64.8787 82.0543 64.9589C82.0755 65.7154 82.1109 66.4818 82.159 67.2383C82.1746 67.4711 82.1915 67.7038 82.2085 67.9366C82.2114 67.9766 82.2064 68.0168 82.1937 68.0549C82.181 68.0929 82.1609 68.1281 82.1346 68.1583C82.1082 68.1885 82.0762 68.2132 82.0403 68.231C82.0044 68.2487 81.9654 68.2591 81.9255 68.2617L81.9283 68.2702ZM207.088 58.3178C207.009 58.3229 206.932 58.2967 206.872 58.245C206.812 58.1932 206.775 58.12 206.768 58.041C206.686 57.0574 206.579 56.0539 206.449 55.076L206.436 54.9809C206.429 54.9408 206.43 54.8998 206.44 54.8602C206.449 54.8207 206.466 54.7834 206.49 54.7507C206.514 54.7179 206.545 54.6904 206.58 54.6697C206.614 54.649 206.653 54.6356 206.693 54.6302C206.734 54.6249 206.774 54.6277 206.813 54.6386C206.853 54.6494 206.889 54.6681 206.921 54.6934C206.952 54.7187 206.979 54.7502 206.998 54.7859C207.017 54.8217 207.029 54.861 207.033 54.9014L207.046 54.998C207.176 55.9915 207.285 56.9964 207.369 57.9899C207.375 58.0697 207.35 58.1489 207.299 58.2101C207.247 58.2713 207.174 58.3095 207.094 58.3164L207.088 58.3178ZM81.7924 61.0855H81.7613C81.6826 61.0807 81.6088 61.0452 81.5559 60.9866C81.503 60.9279 81.4751 60.8508 81.4782 60.7718C81.515 59.7783 81.5787 58.762 81.6636 57.7671C81.6737 57.6898 81.7131 57.6194 81.7737 57.5706C81.8343 57.5217 81.9113 57.4982 81.9888 57.505C82.0662 57.5118 82.138 57.5483 82.1893 57.6069C82.2405 57.6655 82.2672 57.7417 82.2637 57.8196C82.1788 58.8046 82.1222 59.8067 82.0797 60.8002C82.0753 60.8747 82.0434 60.945 81.9904 60.9974C81.9373 61.0498 81.8668 61.0807 81.7924 61.0841V61.0855ZM206.061 51.1047C205.988 51.1096 205.916 51.0879 205.858 51.0435C205.8 50.9991 205.76 50.9351 205.745 50.8634C205.551 49.8926 205.332 48.9147 205.091 47.9552C205.079 47.8798 205.095 47.8024 205.137 47.7385C205.179 47.6747 205.243 47.6292 205.318 47.6112C205.392 47.5932 205.47 47.604 205.536 47.6415C205.603 47.679 205.653 47.7404 205.676 47.8133C205.918 48.7813 206.14 49.7691 206.337 50.7485C206.352 50.8271 206.336 50.9087 206.292 50.9754C206.248 51.0421 206.179 51.0886 206.1 51.1047H206.061ZM82.4774 53.9349C82.4554 53.9377 82.433 53.9377 82.4109 53.9349C82.3719 53.929 82.3343 53.9154 82.3005 53.8949C82.2667 53.8745 82.2372 53.8475 82.2138 53.8156C82.1904 53.7837 82.1735 53.7475 82.1641 53.709C82.1547 53.6705 82.153 53.6305 82.159 53.5914C82.3118 52.5979 82.4902 51.6043 82.6898 50.6207C82.6961 50.5804 82.7105 50.5417 82.7322 50.5072C82.7538 50.4726 82.7822 50.4427 82.8157 50.4194C82.8491 50.3962 82.8869 50.3799 82.9268 50.3717C82.9667 50.3635 83.0079 50.3634 83.0478 50.3716C83.0877 50.3797 83.1255 50.3959 83.159 50.4191C83.1925 50.4424 83.221 50.4722 83.2427 50.5067C83.2643 50.5413 83.2788 50.5799 83.2853 50.6202C83.2917 50.6605 83.2899 50.7018 83.28 50.7414C83.0818 51.7136 82.9063 52.7029 82.7549 53.6837C82.7431 53.7505 82.7094 53.8115 82.6592 53.857C82.6089 53.9025 82.545 53.9299 82.4774 53.9349ZM204.258 44.1556C204.191 44.1598 204.124 44.1413 204.069 44.1033C204.013 44.0652 203.972 44.0097 203.952 43.9456C203.649 43.0046 203.319 42.0579 202.971 41.1325C202.943 41.0572 202.946 40.9738 202.979 40.9006C203.012 40.8274 203.073 40.7704 203.148 40.7421C203.223 40.7139 203.306 40.7167 203.379 40.75C203.452 40.7833 203.509 40.8443 203.537 40.9196C203.888 41.8535 204.222 42.8101 204.528 43.7582C204.552 43.8345 204.546 43.9173 204.509 43.9886C204.473 44.06 204.41 44.1139 204.334 44.1386C204.309 44.1451 204.283 44.1493 204.258 44.1514V44.1556ZM83.9791 46.895C83.9453 46.8967 83.9113 46.8929 83.8787 46.8836C83.8406 46.8731 83.805 46.8552 83.7739 46.8309C83.7428 46.8066 83.7168 46.7763 83.6973 46.7419C83.6779 46.7075 83.6654 46.6696 83.6605 46.6304C83.6557 46.5911 83.6587 46.5513 83.6692 46.5132C83.9339 45.548 84.2254 44.5772 84.5354 43.6248C84.5477 43.5871 84.5674 43.5521 84.5932 43.522C84.619 43.4919 84.6505 43.4672 84.6859 43.4492C84.7212 43.4313 84.7598 43.4205 84.7993 43.4175C84.8388 43.4146 84.8785 43.4194 84.9161 43.4318C84.9538 43.4442 84.9886 43.4639 85.0186 43.4898C85.0487 43.5157 85.0733 43.5473 85.0912 43.5827C85.1091 43.6182 85.1198 43.6568 85.1228 43.6964C85.1258 43.736 85.121 43.7758 85.1086 43.8136C84.8001 44.756 84.5113 45.7183 84.2495 46.6735C84.2321 46.7332 84.1969 46.7861 84.1485 46.8249C84.1001 46.8638 84.041 46.8868 83.9791 46.8907V46.895ZM201.669 37.455C201.608 37.4586 201.547 37.4435 201.494 37.4119C201.442 37.3802 201.4 37.3334 201.375 37.2775C200.966 36.3777 200.525 35.475 200.078 34.595C200.041 34.5237 200.033 34.4403 200.057 34.3632C200.08 34.2862 200.134 34.2217 200.205 34.1841C200.276 34.1465 200.359 34.1387 200.436 34.1625C200.513 34.1863 200.577 34.2398 200.615 34.3111C201.069 35.1996 201.51 36.1109 201.922 37.0206C201.955 37.0935 201.958 37.1766 201.931 37.2516C201.903 37.3266 201.846 37.3875 201.774 37.4209C201.741 37.437 201.705 37.447 201.669 37.4507V37.455ZM86.2749 40.0779C86.23 40.0805 86.185 40.0732 86.1432 40.0566C86.0694 40.0263 86.0104 39.9681 85.9791 39.8945C85.9478 39.8208 85.9468 39.7378 85.9762 39.6635C86.3499 38.7366 86.7504 37.8055 87.1665 36.8957C87.2005 36.8238 87.2614 36.7682 87.336 36.741C87.4106 36.7138 87.4929 36.7172 87.565 36.7505C87.6371 36.7838 87.6932 36.8442 87.7211 36.9187C87.7491 36.9932 87.7466 37.0757 87.7143 37.1484C87.301 38.0383 86.9033 38.9666 86.5353 39.8834C86.5147 39.9369 86.4792 39.9833 86.433 40.017C86.3868 40.0507 86.3319 40.0704 86.2749 40.0736V40.0779ZM198.332 31.1006C198.276 31.1059 198.22 31.0954 198.17 31.0703C198.12 31.0452 198.078 31.0065 198.048 30.9587C197.54 30.1142 197.004 29.2682 196.456 28.4479C196.412 28.3812 196.395 28.2996 196.411 28.221C196.426 28.1423 196.473 28.0731 196.539 28.0284C196.605 27.9838 196.687 27.9675 196.765 27.9831C196.844 27.9987 196.913 28.0448 196.957 28.1115C197.511 28.9404 198.051 29.7934 198.564 30.6478C198.591 30.6921 198.606 30.7426 198.607 30.7945C198.609 30.8463 198.597 30.8977 198.574 30.9437C198.55 30.9897 198.514 31.0287 198.471 31.0569C198.427 31.0852 198.377 31.1017 198.326 31.1049L198.332 31.1006ZM89.332 33.5674C89.2755 33.5715 89.219 33.5592 89.1693 33.5319C89.0993 33.4933 89.0475 33.4285 89.0249 33.3516C89.0024 33.2748 89.011 33.1922 89.049 33.1217C89.5245 32.2446 90.027 31.3646 90.5436 30.5102C90.5628 30.4738 90.5892 30.4418 90.6212 30.416C90.6531 30.3902 90.69 30.3713 90.7296 30.3603C90.7691 30.3493 90.8105 30.3465 90.8511 30.3522C90.8917 30.3578 90.9308 30.3716 90.9659 30.3929C91.001 30.4142 91.0314 30.4424 91.0553 30.4759C91.0791 30.5094 91.0959 30.5474 91.1046 30.5876C91.1133 30.6278 91.1137 30.6694 91.1058 30.7097C91.0979 30.7501 91.0819 30.7885 91.0588 30.8224C90.5478 31.674 90.0496 32.5412 89.5783 33.4099C89.5541 33.4551 89.5188 33.4933 89.4757 33.5209C89.4326 33.5485 89.3831 33.5645 89.332 33.5674ZM194.294 25.1706C194.244 25.1736 194.195 25.1644 194.149 25.1439C194.104 25.1234 194.065 25.0921 194.035 25.0528C193.433 24.2693 192.803 23.4915 192.166 22.7379C192.115 22.6769 192.089 22.5978 192.096 22.5181C192.102 22.4384 192.14 22.3645 192.201 22.3128C192.262 22.261 192.341 22.2356 192.42 22.2421C192.5 22.2486 192.573 22.2866 192.625 22.3476C193.269 23.1069 193.899 23.8932 194.511 24.6838C194.536 24.7152 194.554 24.7512 194.565 24.7897C194.575 24.8281 194.578 24.8683 194.573 24.9079C194.568 24.9475 194.555 24.9857 194.535 25.0203C194.516 25.0549 194.489 25.0853 194.458 25.1096C194.41 25.1455 194.353 25.1668 194.294 25.1706ZM93.1068 27.4543C93.0501 27.4584 92.9934 27.4462 92.9434 27.4191C92.8933 27.3921 92.852 27.3514 92.8241 27.3018C92.7962 27.2521 92.783 27.1955 92.7859 27.1386C92.7888 27.0817 92.8078 27.0268 92.8407 26.9803C93.4068 26.1613 94.0112 25.3466 94.6212 24.556C94.6454 24.5247 94.6755 24.4985 94.7097 24.4788C94.744 24.4592 94.7818 24.4465 94.821 24.4415C94.8601 24.4365 94.8999 24.4392 94.938 24.4496C94.9761 24.46 95.0118 24.4779 95.043 24.5021C95.0742 24.5263 95.1004 24.5565 95.12 24.5909C95.1396 24.6252 95.1522 24.6631 95.1572 24.7024C95.1622 24.7417 95.1595 24.7816 95.1491 24.8198C95.1387 24.858 95.1209 24.8938 95.0968 24.9251C94.4938 25.7085 93.9008 26.5161 93.3332 27.3266C93.3076 27.3637 93.2739 27.3945 93.2347 27.4166C93.1954 27.4387 93.1517 27.4516 93.1068 27.4543ZM189.604 19.7416C189.561 19.7444 189.517 19.7377 189.476 19.722C189.436 19.7064 189.399 19.6821 189.368 19.6508C188.682 18.9411 187.968 18.2386 187.245 17.5616C187.213 17.5352 187.187 17.5027 187.169 17.4659C187.15 17.4291 187.139 17.3888 187.136 17.3477C187.134 17.3065 187.14 17.2652 187.154 17.2263C187.168 17.1875 187.189 17.1519 187.218 17.1218C187.246 17.0917 187.28 17.0678 187.318 17.0513C187.355 17.0349 187.396 17.0265 187.437 17.0264C187.478 17.0264 187.519 17.0348 187.557 17.0512C187.595 17.0676 187.629 17.0915 187.657 17.1216C188.384 17.8043 189.103 18.5125 189.798 19.2293C189.854 19.2861 189.885 19.3625 189.885 19.4422C189.885 19.5218 189.854 19.5983 189.798 19.6551C189.746 19.7068 189.677 19.7376 189.604 19.7416ZM97.5453 21.811C97.5056 21.8142 97.4656 21.8092 97.4279 21.7962C97.3901 21.7833 97.3555 21.7627 97.326 21.7358C97.2963 21.7096 97.2721 21.6777 97.2548 21.6421C97.2375 21.6065 97.2274 21.5678 97.225 21.5282C97.2226 21.4887 97.2281 21.449 97.241 21.4116C97.254 21.3741 97.2742 21.3396 97.3005 21.31C97.96 20.562 98.6479 19.8197 99.3414 19.1044C99.3683 19.0721 99.4015 19.0458 99.439 19.0272C99.4765 19.0085 99.5175 18.9979 99.5594 18.996C99.6012 18.9941 99.643 19.001 99.682 19.0161C99.7211 19.0313 99.7565 19.0545 99.7861 19.0842C99.8158 19.1139 99.8389 19.1495 99.854 19.1886C99.8692 19.2278 99.876 19.2697 99.8741 19.3116C99.8722 19.3536 99.8616 19.3947 99.843 19.4323C99.8244 19.4699 99.7982 19.5033 99.766 19.5302C99.0782 20.2398 98.3988 20.9736 97.7449 21.7145C97.6933 21.7713 97.6218 21.8059 97.5453 21.811ZM184.329 14.879C184.253 14.8841 184.178 14.8597 184.119 14.8109C183.356 14.1849 182.562 13.5675 181.775 12.9771C181.743 12.9534 181.716 12.9237 181.696 12.8896C181.675 12.8556 181.662 12.8178 181.656 12.7785C181.65 12.7393 181.652 12.6992 181.662 12.6607C181.672 12.6222 181.689 12.586 181.712 12.5541C181.736 12.5223 181.766 12.4954 181.8 12.475C181.834 12.4546 181.871 12.4411 181.91 12.4353C181.95 12.4295 181.989 12.4315 182.028 12.4412C182.066 12.4508 182.102 12.468 182.134 12.4917C182.934 13.0878 183.731 13.7109 184.501 14.3368C184.547 14.3753 184.581 14.4269 184.598 14.485C184.615 14.5431 184.615 14.605 184.596 14.6627C184.578 14.7203 184.542 14.7711 184.495 14.8084C184.447 14.8457 184.39 14.8678 184.329 14.8719V14.879ZM102.591 16.7114C102.529 16.7159 102.466 16.7007 102.413 16.6678C102.359 16.6349 102.317 16.5861 102.293 16.5282C102.269 16.4702 102.263 16.4061 102.277 16.3447C102.291 16.2834 102.323 16.228 102.37 16.1862C103.111 15.5177 103.876 14.8606 104.648 14.2289C104.709 14.1783 104.789 14.1544 104.868 14.1623C104.947 14.1703 105.02 14.2096 105.071 14.2715C105.121 14.3335 105.145 14.413 105.137 14.4925C105.129 14.5721 105.09 14.6453 105.028 14.6959C104.265 15.3218 103.507 15.9733 102.774 16.6347C102.723 16.68 102.659 16.7069 102.591 16.7114ZM178.536 10.6451C178.472 10.6494 178.408 10.6324 178.354 10.5969C177.524 10.0604 176.671 9.53662 175.816 9.0356C175.78 9.0165 175.749 8.99035 175.723 8.95872C175.698 8.9271 175.679 8.89065 175.668 8.85154C175.657 8.81244 175.654 8.77149 175.659 8.73115C175.664 8.69081 175.677 8.6519 175.697 8.61676C175.717 8.58161 175.745 8.55095 175.777 8.5266C175.81 8.50226 175.847 8.48473 175.886 8.47507C175.925 8.46541 175.966 8.46382 176.006 8.47038C176.046 8.47695 176.085 8.49154 176.119 8.51328C176.981 9.01431 177.843 9.54372 178.679 10.0859C178.732 10.1204 178.773 10.1706 178.796 10.2295C178.819 10.2884 178.823 10.3531 178.807 10.4143C178.791 10.4756 178.757 10.5304 178.709 10.571C178.66 10.6117 178.601 10.6361 178.538 10.6409L178.536 10.6451ZM108.18 12.222C108.129 12.2258 108.078 12.2162 108.031 12.194C107.985 12.1719 107.945 12.138 107.916 12.0957C107.892 12.0632 107.875 12.0263 107.866 11.9872C107.857 11.9481 107.855 11.9075 107.862 11.8679C107.868 11.8282 107.883 11.7903 107.904 11.7563C107.926 11.7223 107.954 11.6929 107.986 11.6699C108.797 11.0922 109.632 10.5259 110.469 9.98797C110.503 9.96654 110.54 9.95198 110.58 9.94512C110.619 9.93826 110.659 9.93924 110.698 9.94801C110.737 9.95677 110.774 9.97315 110.807 9.9962C110.839 10.0193 110.867 10.0485 110.889 10.0824C110.91 10.1162 110.925 10.1539 110.931 10.1934C110.938 10.2328 110.937 10.2732 110.928 10.3123C110.92 10.3514 110.903 10.3884 110.88 10.4211C110.857 10.4539 110.828 10.4818 110.795 10.5032C109.965 11.0369 109.139 11.5975 108.336 12.1695C108.29 12.2013 108.236 12.2195 108.18 12.222ZM172.296 7.09821C172.243 7.10191 172.19 7.09112 172.143 7.06698C171.257 6.62841 170.35 6.20544 169.444 5.80945C169.407 5.79424 169.373 5.77169 169.344 5.74313C169.316 5.71456 169.293 5.68056 169.278 5.64314C169.263 5.60571 169.256 5.56562 169.256 5.52523C169.257 5.48484 169.265 5.44496 169.281 5.40797C169.298 5.37097 169.321 5.3376 169.35 5.30983C169.38 5.28206 169.414 5.26045 169.452 5.24627C169.49 5.2321 169.53 5.22565 169.57 5.2273C169.61 5.22896 169.65 5.23868 169.686 5.25591C170.599 5.65474 171.516 6.08338 172.409 6.52621C172.466 6.55678 172.512 6.605 172.54 6.66373C172.568 6.72246 172.576 6.78857 172.563 6.85228C172.55 6.91599 172.518 6.9739 172.469 7.01743C172.421 7.06095 172.361 7.08779 172.296 7.09395V7.09821ZM114.237 8.404C114.168 8.40925 114.099 8.3906 114.042 8.35118C113.985 8.31175 113.944 8.25394 113.924 8.18742C113.905 8.1209 113.909 8.04972 113.936 7.98579C113.962 7.92186 114.01 7.86907 114.071 7.83626C114.944 7.35511 115.84 6.88673 116.735 6.44815C116.771 6.428 116.81 6.41537 116.851 6.41106C116.892 6.40674 116.933 6.41083 116.972 6.42306C117.011 6.43529 117.048 6.45541 117.079 6.48218C117.11 6.50896 117.135 6.54183 117.153 6.57879C117.171 6.61574 117.182 6.656 117.184 6.6971C117.186 6.73819 117.179 6.77926 117.165 6.81779C117.15 6.85632 117.128 6.89149 117.1 6.92116C117.071 6.95083 117.037 6.97437 116.999 6.99034C116.118 7.42607 115.23 7.8902 114.361 8.37419C114.324 8.39245 114.283 8.4026 114.241 8.404H114.237ZM165.695 4.28792C165.653 4.29057 165.612 4.28477 165.573 4.27089C164.643 3.93593 163.692 3.61941 162.742 3.32987C162.67 3.30359 162.61 3.25026 162.575 3.18092C162.54 3.11158 162.534 3.03152 162.556 2.95732C162.579 2.88312 162.629 2.82044 162.696 2.78226C162.763 2.74408 162.843 2.73332 162.918 2.7522C163.872 3.04458 164.831 3.36393 165.771 3.70316C165.837 3.726 165.893 3.77102 165.929 3.83053C165.965 3.89004 165.98 3.96034 165.97 4.02941C165.96 4.09847 165.927 4.16201 165.876 4.20917C165.825 4.25632 165.759 4.28416 165.689 4.28792H165.695ZM120.701 5.30842C120.629 5.3132 120.558 5.29226 120.501 5.24936C120.443 5.20646 120.403 5.14441 120.387 5.07433C120.371 5.00426 120.38 4.93075 120.413 4.86701C120.446 4.80326 120.501 4.75344 120.568 4.7265C121.489 4.34895 122.433 3.98702 123.373 3.65348C123.446 3.6343 123.523 3.64332 123.59 3.67875C123.657 3.71418 123.708 3.77344 123.733 3.84481C123.758 3.91617 123.756 3.99445 123.727 4.06415C123.697 4.13385 123.643 4.1899 123.574 4.22121C122.642 4.55192 121.708 4.90959 120.795 5.2843C120.766 5.2953 120.736 5.30199 120.705 5.30417L120.701 5.30842ZM158.818 2.2455C158.788 2.24731 158.759 2.24492 158.73 2.2384C157.766 2.01273 156.785 1.8126 155.813 1.62809C155.734 1.61359 155.664 1.56837 155.619 1.50235C155.574 1.43634 155.556 1.35495 155.571 1.27609C155.585 1.19723 155.63 1.12735 155.696 1.08184C155.762 1.03632 155.843 1.01889 155.922 1.03338C156.903 1.21506 157.893 1.42228 158.867 1.64938C158.938 1.66587 159 1.70722 159.042 1.76587C159.085 1.82453 159.105 1.89659 159.099 1.96889C159.093 2.04118 159.061 2.10891 159.01 2.15969C158.958 2.21047 158.89 2.24093 158.818 2.2455ZM127.482 2.96794C127.408 2.97163 127.335 2.9481 127.278 2.90181C127.22 2.85552 127.182 2.78967 127.169 2.71674C127.157 2.64381 127.172 2.56886 127.211 2.50608C127.25 2.4433 127.31 2.39704 127.381 2.37608C128.339 2.1064 129.317 1.85518 130.29 1.63092C130.368 1.6121 130.45 1.62508 130.518 1.667C130.586 1.70893 130.635 1.77636 130.654 1.85447C130.673 1.93258 130.66 2.01497 130.618 2.08351C130.576 2.15205 130.509 2.20113 130.431 2.21995C129.469 2.44137 128.501 2.68975 127.551 2.958C127.528 2.96401 127.505 2.96734 127.482 2.96794ZM151.751 1.01351C151.733 1.01564 151.715 1.01564 151.697 1.01351C150.716 0.899967 149.715 0.810548 148.736 0.74384C148.657 0.737118 148.584 0.699717 148.533 0.639675C148.482 0.579633 148.456 0.501741 148.461 0.422738C148.466 0.343736 148.502 0.269928 148.561 0.217175C148.62 0.164423 148.697 0.136936 148.776 0.140622C149.766 0.207331 150.776 0.299587 151.765 0.413134C151.839 0.421966 151.908 0.458362 151.957 0.515205C152.006 0.572047 152.033 0.645248 152.031 0.720492C152.029 0.795737 151.999 0.867614 151.948 0.922067C151.896 0.976521 151.826 1.00963 151.751 1.01493V1.01351ZM134.479 1.41944C134.402 1.4247 134.325 1.39973 134.265 1.34975C134.206 1.29977 134.168 1.22864 134.159 1.1512C134.151 1.07375 134.172 0.995978 134.219 0.934096C134.267 0.872213 134.336 0.831004 134.413 0.819064C135.025 0.719711 135.65 0.628873 136.267 0.546552C136.639 0.498294 137.015 0.451456 137.386 0.404618C137.464 0.397784 137.542 0.421788 137.603 0.471531C137.664 0.521274 137.703 0.592835 137.712 0.671007C137.721 0.749179 137.699 0.827802 137.651 0.890168C137.603 0.952534 137.533 0.993728 137.456 1.005C137.088 1.04616 136.714 1.093 136.346 1.14693C135.735 1.22783 135.116 1.31867 134.506 1.41802L134.479 1.41944ZM144.596 0.600487H144.576C143.586 0.600487 142.595 0.624615 141.604 0.671454C141.526 0.672819 141.451 0.643879 141.394 0.590702C141.336 0.537526 141.302 0.464244 141.298 0.386226C141.293 0.308208 141.319 0.231515 141.37 0.17223C141.421 0.112945 141.492 0.0756752 141.57 0.0682357C142.561 0.0199783 143.576 -0.00415039 144.571 -0.00415039C144.647 -0.00205648 144.72 0.029356 144.775 0.0836718C144.829 0.137988 144.861 0.211109 144.864 0.288103C144.866 0.365097 144.839 0.440155 144.789 0.497948C144.738 0.555742 144.667 0.59191 144.59 0.599067L144.596 0.600487Z" fill="#A3AED0"/>
<path d="M154.491 37.5572V141.472H154.219L146.374 133.817L138.528 141.472H137.71L129.865 133.817L122.018 141.472H121.213L113.38 133.831L105.549 141.472H104.746L96.9068 133.822L89.0657 141.472H88.2392L80.3981 133.822L72.557 141.472H71.7403L63.9148 133.836L56.0893 141.472H55.5713V8.67651H125.691L154.491 37.5572Z" fill="#8D99FF"/>
<path d="M154.491 37.5572H125.691V8.67651L154.491 37.5572Z" fill="#8D99FF"/>
<path d="M82.1906 91.6167V87.7305H71.7325C70.4115 87.7305 69.4208 87.4311 68.7603 86.8321C68.0998 86.2331 67.7695 85.4184 67.7695 84.388C67.7696 84.1135 67.8175 83.8412 67.9111 83.5832C68.0234 83.2833 68.1702 82.9975 68.3484 82.7316C68.5423 82.4322 68.7447 82.144 68.9528 81.8644C69.1608 81.5848 69.4184 81.2456 69.7241 80.8411L80.7639 66.0275C81.4867 65.0519 82.0807 64.3451 82.5458 63.907C82.9963 63.4741 83.5992 63.2374 84.223 63.2484C86.3347 63.2484 87.3906 64.4605 87.3906 66.8848V83.0496H88.2865C89.3546 83.0496 90.2124 83.1962 90.8596 83.4896C91.5069 83.7829 91.8296 84.4235 91.8277 85.4113C91.8277 86.2194 91.564 86.808 91.0366 87.177C90.5091 87.546 89.7174 87.7305 88.6616 87.7305H87.3878V91.6167C87.3878 92.6897 87.1519 93.4869 86.6801 94.0083C86.2083 94.5296 85.5766 94.7908 84.7849 94.7917C84.431 94.8047 84.0785 94.7395 83.7524 94.6006C83.4264 94.4618 83.1348 94.2528 82.8983 93.9884C82.4274 93.4519 82.1915 92.6613 82.1906 91.6167ZM73.2328 83.0496H82.1906V70.9114L73.2328 83.0496Z" fill="white"/>
<path d="M115.944 79.2473C115.944 81.5324 115.803 83.4967 115.52 85.1403C115.268 86.709 114.747 88.2218 113.978 89.6112C113.035 91.2548 111.813 92.5223 110.311 93.4136C108.673 94.3609 106.799 94.8207 104.909 94.7392C103.02 94.6578 101.192 94.0385 99.6409 92.9538C97.9661 91.7558 96.7055 90.1 95.8591 87.9861C95.4075 86.7463 95.0896 85.4616 94.9108 84.1539C94.7027 82.6491 94.6019 81.1312 94.6093 79.612C94.597 77.7143 94.7081 75.8179 94.9419 73.9347C95.1157 72.4496 95.4654 70.9907 95.9836 69.5887C96.8036 67.5836 97.9948 66.055 99.5574 65.0028C101.12 63.9506 102.984 63.4245 105.151 63.4245C106.482 63.4068 107.805 63.6443 109.047 64.1242C110.203 64.5841 111.25 65.2818 112.12 66.1723C113.051 67.1413 113.809 68.2639 114.361 69.4907C115.416 71.7891 115.944 75.0413 115.944 79.2473ZM110.235 78.83C110.235 76.2808 110.082 74.1949 109.776 72.5721C109.471 70.9493 108.957 69.7235 108.235 68.8946C107.513 68.0667 106.513 67.6522 105.234 67.6513C103.402 67.6513 102.128 68.5776 101.413 70.4303C100.698 72.2831 100.34 75.1388 100.34 78.9975C100.34 81.6157 100.493 83.7607 100.799 85.4327C101.104 87.1047 101.618 88.3684 102.34 89.2238C103.062 90.081 104.041 90.5097 105.278 90.5097C106.556 90.5097 107.556 90.064 108.279 89.1727C109.002 88.2813 109.508 87.0068 109.799 85.349C110.09 83.6912 110.235 81.5182 110.235 78.83Z" fill="white"/>
<path d="M132.902 91.6167V87.7306H122.442C121.121 87.7306 120.131 87.4311 119.47 86.8321C118.81 86.2332 118.479 85.4185 118.479 84.388C118.48 84.1136 118.527 83.8412 118.621 83.5833C118.733 83.2831 118.88 82.9972 119.058 82.7317C119.252 82.4322 119.453 82.1441 119.663 81.8645C119.872 81.5849 120.127 81.2456 120.433 80.8411L131.472 66.0275C132.194 65.052 132.788 64.3451 133.254 63.907C133.705 63.4737 134.308 63.2369 134.932 63.2484C137.042 63.2484 138.098 64.4606 138.098 66.8848V83.0496H138.994C140.064 83.0496 140.921 83.1963 141.567 83.4896C142.212 83.7829 142.535 84.4235 142.536 85.4114C142.536 86.2195 142.272 86.808 141.744 87.177C141.215 87.5461 140.424 87.7306 139.369 87.7306H138.095V91.6167C138.095 92.6897 137.859 93.4869 137.387 94.0083C136.915 94.5297 136.283 94.7908 135.491 94.7918C135.137 94.8047 134.785 94.7395 134.459 94.6006C134.133 94.4618 133.842 94.2528 133.605 93.9884C133.136 93.4519 132.902 92.6613 132.902 91.6167ZM123.943 83.0496H132.902V70.9114L123.943 83.0496Z" fill="white"/>
<path d="M104.261 171.975C103.937 172.3 103.552 172.558 103.129 172.734C102.706 172.91 102.252 173.001 101.794 173.001C101.336 173.001 100.882 172.91 100.459 172.734C100.035 172.558 99.6508 172.3 99.3269 171.975L78.1433 150.733L75.4541 148.037C77.4172 146.737 79.0971 145.052 80.3923 143.083L104.268 167.027C104.592 167.353 104.848 167.739 105.023 168.163C105.198 168.588 105.287 169.043 105.287 169.503C105.286 169.962 105.195 170.417 105.019 170.841C104.843 171.266 104.585 171.651 104.261 171.975Z" fill="#C8D0EA"/>
<path d="M86.9593 132.631C86.8401 129.767 86.1384 126.957 84.8971 124.375C83.6558 121.792 81.9012 119.491 79.741 117.613C76.694 114.958 72.9496 113.237 68.9543 112.656C64.959 112.076 60.8815 112.659 57.208 114.338C53.5345 116.017 50.42 118.72 48.2361 122.125C46.0521 125.53 44.8908 129.493 44.8906 133.541C44.8906 134.338 44.935 135.135 45.0237 135.927C45.2924 138.33 45.9738 140.667 47.0377 142.837C48.5315 145.882 50.7334 148.522 53.4578 150.535C53.8984 150.861 54.3513 151.17 54.8165 151.462C58.3431 153.66 62.4391 154.764 66.5896 154.634C70.74 154.505 74.7596 153.148 78.1431 150.734C80.0509 149.369 81.7197 147.697 83.0812 145.784C85.6256 142.213 86.9897 137.932 86.982 133.543C86.9791 133.237 86.9716 132.933 86.9593 132.631ZM65.9342 150.89C63.6623 150.89 61.4127 150.441 59.3138 149.569C57.2149 148.697 55.3077 147.42 53.7013 145.809C52.0948 144.198 50.8205 142.285 49.9511 140.18C49.0817 138.075 48.6342 135.82 48.6342 133.541C48.6342 131.263 49.0817 129.007 49.9511 126.902C50.8205 124.797 52.0948 122.885 53.7013 121.274C55.3077 119.663 57.2149 118.385 59.3138 117.513C61.4127 116.641 63.6623 116.193 65.9342 116.193C66.6889 116.191 67.443 116.238 68.1917 116.335C72.3534 116.884 76.1739 118.932 78.9416 122.097C81.7093 125.262 83.2354 129.328 83.2355 133.537C83.2355 133.801 83.2284 134.064 83.2171 134.325C83.0802 137.355 82.1533 140.297 80.5289 142.856C78.9044 145.415 76.6392 147.503 73.9593 148.91C72.853 149.492 71.6863 149.952 70.4803 150.28C68.9986 150.684 67.4698 150.889 65.9342 150.89Z" fill="#C8D0EA"/>
</g>
<defs>
<clipPath id="clip0_206_542">
<rect width="213" height="173" fill="white"/>
</clipPath>
</defs>
</svg>
