<svg width="45" height="45" viewBox="0 0 45 45" fill="none" xmlns="http://www.w3.org/2000/svg">
<path d="M44.5171 34.1269C42.842 30.9602 37.025 27.5265 36.7689 27.3764C36.0215 26.9509 35.2415 26.7257 34.5115 26.7257C33.4262 26.7257 32.5378 27.2229 31.9997 28.1272C31.1488 29.1449 30.0935 30.3345 29.8374 30.5189C27.8553 31.8636 26.3037 31.711 24.5868 29.9941L15.005 20.4115C13.299 18.7055 13.1422 17.1347 14.4778 15.1634C14.6647 14.9056 15.8542 13.8495 16.872 12.9978C17.521 12.6115 17.9665 12.0376 18.1617 11.3335C18.4211 10.3967 18.2301 9.29469 17.6178 8.22105C17.4735 7.97412 14.0382 2.15628 10.8731 0.482005C10.2825 0.169173 9.6168 0.0039978 8.94942 0.0039978C7.84993 0.0039978 6.8155 0.432786 6.038 1.20944L3.92076 3.32585C0.572207 6.67357 -0.639912 10.4684 0.316102 14.6045C1.11361 18.0515 3.43775 21.7195 7.2251 25.506L19.4923 37.7732C24.2857 42.5666 28.8555 44.9976 33.075 44.9976C33.075 44.9976 33.075 44.9976 33.0758 44.9976C36.1791 44.9976 39.0722 43.6787 41.6725 41.0784L43.7889 38.962C45.0752 37.6765 45.3672 35.7327 44.5171 34.1269Z" fill="white"/>
</svg>
