<svg width="16" height="16" viewBox="0 0 16 16" fill="none" xmlns="http://www.w3.org/2000/svg">
<path d="M7.99999 3.06333C7.27359 2.3954 6.3228 2.0247 5.33599 2.02467C4.81369 2.02521 4.29664 2.12904 3.81462 2.33018C3.33259 2.53132 2.8951 2.8258 2.52733 3.19667C0.958659 4.772 0.959325 7.236 2.52866 8.80467L7.41666 13.6927C7.52999 13.892 7.74866 14.0207 7.99999 14.0207C8.10319 14.0197 8.20472 13.9945 8.29642 13.9471C8.38811 13.8998 8.46743 13.8316 8.52799 13.748L13.4713 8.80467C15.0407 7.23533 15.0407 4.772 13.47 3.194C13.1024 2.82381 12.6653 2.52993 12.1837 2.32925C11.7022 2.12858 11.1857 2.02507 10.664 2.02467C9.67721 2.02483 8.72646 2.39551 7.99999 3.06333V3.06333ZM12.5273 4.13667C13.5693 5.184 13.57 6.82 12.5287 7.862L7.99999 12.3907L3.47133 7.862C2.42999 6.82 2.43066 5.184 3.46999 4.13933C3.97666 3.63533 4.63933 3.358 5.33599 3.358C6.03266 3.358 6.69266 3.63533 7.19533 4.138L7.52866 4.47133C7.59052 4.5333 7.66399 4.58245 7.74486 4.616C7.82574 4.64954 7.91244 4.6668 7.99999 4.6668C8.08755 4.6668 8.17424 4.64954 8.25512 4.616C8.336 4.58245 8.40947 4.5333 8.47133 4.47133L8.80466 4.138C9.81266 3.132 11.5207 3.13467 12.5273 4.13667V4.13667Z" fill="#DC3545"/>
</svg>
