<svg width="19" height="16" viewBox="0 0 19 16" fill="none" xmlns="http://www.w3.org/2000/svg">
<path d="M10.5714 1C12.3571 1 13.875 1.63194 15.125 2.89583C16.375 4.15972 17 5.69444 17 7.5C17 9.30556 16.375 10.8403 15.125 12.1042C13.875 13.3681 12.3571 14 10.5714 14C8.80804 14 7.29018 13.3681 6.01786 12.1042L7.0558 11.0547C8.01562 12.0477 9.1875 12.5443 10.5714 12.5443C11.9554 12.5443 13.1328 12.0534 14.1038 11.0716C15.0748 10.0898 15.5603 8.89931 15.5603 7.5C15.5603 6.10069 15.0748 4.91016 14.1038 3.92839C13.1328 2.94661 11.9554 2.45573 10.5714 2.45573C9.1875 2.45573 8.01004 2.94661 7.03906 3.92839C6.06808 4.91016 5.58259 6.10069 5.58259 7.5H7.72545L4.8125 10.4115L4.77902 10.3099L2 7.5H4.14286C4.14286 5.69444 4.76786 4.15972 6.01786 2.89583C7.26786 1.63194 8.78571 1 10.5714 1ZM9.8683 4.6224H10.9397V7.66927L13.4174 9.19271L12.9152 10.0729L9.8683 8.21094V4.6224Z" fill="#8D99FF"/>
</svg>
