<svg width="15" height="13" viewBox="0 0 15 13" fill="none" xmlns="http://www.w3.org/2000/svg">
<path d="M8.57143 0C10.3571 0 11.875 0.631944 13.125 1.89583C14.375 3.15972 15 4.69444 15 6.5C15 8.30556 14.375 9.84028 13.125 11.1042C11.875 12.3681 10.3571 13 8.57143 13C6.80804 13 5.29018 12.3681 4.01786 11.1042L5.0558 10.0547C6.01562 11.0477 7.1875 11.5443 8.57143 11.5443C9.95536 11.5443 11.1328 11.0534 12.1038 10.0716C13.0748 9.08984 13.5603 7.89931 13.5603 6.5C13.5603 5.10069 13.0748 3.91016 12.1038 2.92839C11.1328 1.94661 9.95536 1.45573 8.57143 1.45573C7.1875 1.45573 6.01004 1.94661 5.03906 2.92839C4.06808 3.91016 3.58259 5.10069 3.58259 6.5H5.72545L2.8125 9.41146L2.77902 9.3099L0 6.5H2.14286C2.14286 4.69444 2.76786 3.15972 4.01786 1.89583C5.26786 0.631944 6.78571 0 8.57143 0ZM7.8683 3.6224H8.93973V6.66927L11.4174 8.19271L10.9152 9.07292L7.8683 7.21094V3.6224Z" fill="#8D99FF"/>
</svg>
