<svg width="16" height="16" viewBox="0 0 16 16" fill="none" xmlns="http://www.w3.org/2000/svg">
<path fill-rule="evenodd" clip-rule="evenodd" d="M5.64546 0.0873619C5.42709 0.209604 5.31747 0.359666 4.96888 1.01314C4.7727 1.38094 4.59878 1.63281 4.46835 1.73798L4.26848 1.89917L3.43156 1.88286C2.63867 1.86734 2.58213 1.87312 2.35674 1.99263C2.19304 2.07941 2.07866 2.19304 1.99012 2.35674C1.86659 2.58518 1.86269 2.62444 1.89227 3.34361C1.93785 4.45048 1.9019 4.50992 0.857196 5.0549C0.174831 5.41088 0.0455266 5.55072 0.0106996 5.97025C-0.0196337 6.33639 0.0349876 6.4811 0.450077 7.13474C0.966278 7.94742 0.964833 8.03248 0.420867 8.88337C0.0459011 9.46986 0 9.58103 0 9.90229C0 10.3968 0.145193 10.5501 1.06429 11.0258C1.49842 11.2505 1.65094 11.3598 1.75976 11.5244C1.89596 11.7303 1.89917 11.7557 1.89917 12.6256V13.516L2.04907 13.7128C2.30774 14.0524 2.42966 14.086 3.42386 14.0916C4.52212 14.0979 4.52249 14.0981 4.92378 14.8859C5.27414 15.5739 5.40965 15.7556 5.67173 15.8893C6.07864 16.0969 6.32029 16.0324 7.17663 15.4877C7.95127 14.995 8.03478 14.9997 8.94885 15.5875C9.60692 16.0107 9.93497 16.0897 10.2844 15.909C10.5177 15.7883 10.6032 15.6756 10.9487 15.0329C11.4662 14.0702 11.4861 14.0585 12.5899 14.0771C13.3541 14.0899 13.4163 14.0833 13.6232 13.9671C13.7495 13.8961 13.8934 13.7542 13.9608 13.6343C14.0684 13.4428 14.0777 13.3564 14.0729 12.5971C14.0656 11.4812 14.0796 11.4569 15.0061 10.9705C15.6042 10.6564 15.8087 10.4897 15.92 10.2249C16.0839 9.83531 16.0151 9.61297 15.4717 8.77664C15.2216 8.39161 15.171 8.27221 15.1528 8.02467C15.1319 7.7383 15.1412 7.71476 15.5033 7.14196C15.9532 6.43038 16.0228 6.25085 15.9742 5.92686C15.9196 5.5626 15.6968 5.35198 14.9626 4.97032C14.0706 4.5066 14.0605 4.48889 14.0755 3.41605C14.0886 2.47952 14.0396 2.298 13.7052 2.0433C13.5173 1.90019 13.5096 1.89917 12.6294 1.89917C11.4432 1.89917 11.4329 1.89334 10.9667 0.963549C10.5678 0.167876 10.3815 0 9.89715 0C9.58756 0 9.43348 0.0672468 8.75412 0.498707C8.26648 0.808459 8.02002 0.893895 7.80196 0.828842C7.73322 0.808299 7.40217 0.620361 7.06642 0.411131C6.50699 0.062539 6.42862 0.0293703 6.13021 0.0144979C5.90097 0.00310288 5.75738 0.0246625 5.64546 0.0873619Z" fill="#43A047"/>
<g clip-path="url(#clip0_6408_17278)">
<path d="M10.7425 4.71552C10.8795 4.57725 11.0656 4.49883 11.2603 4.4974C11.4549 4.49596 11.6422 4.57163 11.7812 4.70787C11.9202 4.8441 11.9997 5.02983 12.0021 5.22445C12.0046 5.41907 11.93 5.60677 11.7945 5.74652L7.87451 10.647C7.80716 10.7195 7.7259 10.7777 7.63557 10.8181C7.54524 10.8585 7.44769 10.8803 7.34875 10.8822C7.24982 10.884 7.15152 10.866 7.05973 10.829C6.96794 10.792 6.88454 10.7369 6.81451 10.667L4.21551 8.06902C4.07739 7.93084 3.99983 7.74346 3.99988 7.54809C3.99992 7.35273 4.07758 7.16538 4.21576 7.02727C4.35393 6.88916 4.54132 6.81159 4.73668 6.81164C4.93205 6.81169 5.1194 6.88934 5.25751 7.02752L7.31301 9.08352L10.723 4.73852C10.7292 4.73061 10.7359 4.7231 10.743 4.71602L10.7425 4.71552Z" fill="white"/>
</g>
<defs>
<clipPath id="clip0_6408_17278">
<rect width="8" height="8" fill="white" transform="translate(4 4)"/>
</clipPath>
</defs>
</svg>
