<svg width="14" height="12" viewBox="0 0 14 12" fill="none" xmlns="http://www.w3.org/2000/svg">
<path d="M6.64875 1.03867C5.92235 0.370736 4.97156 3.10357e-05 3.98475 0C3.46244 0.000543801 2.9454 0.104373 2.46338 0.305512C1.98135 0.506651 1.54386 0.80113 1.17608 1.172C-0.392583 2.74733 -0.391917 5.21133 1.17742 6.78L6.06542 11.668C6.17875 11.8673 6.39742 11.996 6.64875 11.996C6.75195 11.995 6.85348 11.9698 6.94517 11.9225C7.03687 11.8751 7.11619 11.8069 7.17675 11.7233L12.1201 6.78C13.6894 5.21067 13.6894 2.74733 12.1188 1.16933C11.7512 0.799144 11.314 0.505264 10.8325 0.304589C10.3509 0.103913 9.83444 0.000399738 9.31275 0C8.32597 0.000161306 7.37522 0.370848 6.64875 1.03867ZM11.1761 2.112C12.2181 3.15933 12.2188 4.79533 11.1774 5.83733L6.64875 10.366L2.12008 5.83733C1.07875 4.79533 1.07942 3.15933 2.11875 2.11467C2.62542 1.61067 3.28808 1.33333 3.98475 1.33333C4.68142 1.33333 5.34142 1.61067 5.84408 2.11333L6.17742 2.44667C6.23928 2.50863 6.31274 2.55779 6.39362 2.59133C6.4745 2.62487 6.56119 2.64213 6.64875 2.64213C6.73631 2.64213 6.823 2.62487 6.90388 2.59133C6.98476 2.55779 7.05823 2.50863 7.12008 2.44667L7.45342 2.11333C8.46142 1.10733 10.1694 1.11 11.1761 2.112Z" fill="white"/>
</svg>
